<svg width="24" height="24" viewBox="0 0 24 24" fill="none" xmlns="http://www.w3.org/2000/svg">
<g clip-path="url(#clip0_154_1167)">
<path d="M12 22C17.5229 22 22 17.5229 22 12C22 6.47715 17.5229 2 12 2C6.47715 2 2 6.47715 2 12C2 17.5229 6.47715 22 12 22Z" stroke="#F48087" stroke-width="2.4" stroke-linejoin="round"/>
<path fill-rule="evenodd" clip-rule="evenodd" d="M22 12C22 17.5229 17.5229 22 12 22C6.47715 22 2 17.5229 2 12C2 6.47715 6.47715 2 12 2C17.5229 2 22 6.47715 22 12ZM16.7 9.00003C16.7 8.33729 16.1627 7.80003 15.5 7.80003C14.8373 7.80003 14.3 8.33729 14.3 9.00003V9.50003C14.3 10.1628 14.8373 10.7 15.5 10.7C16.1627 10.7 16.7 10.1628 16.7 9.50003V9.00003ZM8.49988 7.80003C9.16262 7.80003 9.69988 8.33729 9.69988 9.00003V9.50003C9.69988 10.1628 9.16262 10.7 8.49988 10.7C7.83714 10.7 7.29988 10.1628 7.29988 9.50003V9.00003C7.29988 8.33729 7.83714 7.80003 8.49988 7.80003ZM15.6696 16.188C16.3257 16.0942 16.7815 15.4864 16.6878 14.8303C16.5941 14.1742 15.9863 13.7184 15.3302 13.8121L8.33017 14.8121C7.67409 14.9058 7.21821 15.5137 7.31194 16.1697C7.40566 16.8258 8.0135 17.2817 8.66958 17.188L15.6696 16.188Z" fill="#F48087"/>
</g>
<defs>
<clipPath id="clip0_154_1167">
<rect width="24" height="24" fill="white"/>
</clipPath>
</defs>
</svg>
