<svg width="24" height="24" viewBox="0 0 24 24" fill="none" xmlns="http://www.w3.org/2000/svg">
<path d="M12 22C17.5229 22 22 17.5229 22 12C22 6.47715 17.5229 2 12 2C6.47715 2 2 6.47715 2 12C2 17.5229 6.47715 22 12 22Z" stroke="#52D4CD" stroke-width="2" stroke-linejoin="round"/>
<path fill-rule="evenodd" clip-rule="evenodd" d="M22 12C22 17.5229 17.5229 22 12 22C6.47715 22 2 17.5229 2 12C2 6.47715 6.47715 2 12 2C17.5229 2 22 6.47715 22 12ZM8.5 14.5C8.15342 14.5 7.83156 14.6795 7.64935 14.9743C7.46714 15.2691 7.45058 15.6372 7.60557 15.9472L8.5 15.5C7.60557 15.9472 7.6058 15.9477 7.60602 15.9481L7.6065 15.9491L7.60752 15.9511L7.60987 15.9557L7.61579 15.9672C7.62027 15.9758 7.62585 15.9864 7.63255 15.9987C7.64593 16.0234 7.6638 16.0554 7.68631 16.0936C7.73127 16.1699 7.79516 16.2718 7.87929 16.3905C8.04677 16.627 8.2992 16.9372 8.64814 17.2474C9.35443 17.8752 10.4572 18.5 12 18.5C13.5428 18.5 14.6456 17.8752 15.3519 17.2474C15.7008 16.9372 15.9532 16.627 16.1207 16.3905C16.2048 16.2718 16.2687 16.1699 16.3137 16.0936C16.3362 16.0554 16.3541 16.0234 16.3675 15.9987C16.3741 15.9864 16.3797 15.9758 16.3842 15.9672L16.3901 15.9557L16.3925 15.9511L16.3935 15.9491L16.394 15.9481C16.3942 15.9477 16.3944 15.9472 15.5 15.5L16.3944 15.9472C16.5494 15.6372 16.5329 15.2691 16.3507 14.9743C16.1684 14.6795 15.8466 14.5 15.5 14.5H8.5ZM16.7071 7.79289C17.0976 8.18342 17.0976 8.81658 16.7071 9.20711L15.9142 10L16.7071 10.7929C17.0976 11.1834 17.0976 11.8166 16.7071 12.2071C16.3166 12.5976 15.6834 12.5976 15.2929 12.2071L13.7929 10.7071C13.4024 10.3166 13.4024 9.68342 13.7929 9.29289L15.2929 7.79289C15.6834 7.40237 16.3166 7.40237 16.7071 7.79289ZM8.70711 7.79289C8.31658 7.40237 7.68342 7.40237 7.29289 7.79289C6.90237 8.18342 6.90237 8.81658 7.29289 9.20711L8.08579 10L7.29289 10.7929C6.90237 11.1834 6.90237 11.8166 7.29289 12.2071C7.68342 12.5976 8.31658 12.5976 8.70711 12.2071L10.2071 10.7071C10.5976 10.3166 10.5976 9.68342 10.2071 9.29289L8.70711 7.79289Z" fill="#52D4CD"/>
</svg>
