<svg width="24" height="24" viewBox="0 0 24 24" fill="none" xmlns="http://www.w3.org/2000/svg">
<path d="M12 22C17.5229 22 22 17.5229 22 12C22 6.47715 17.5229 2 12 2C6.47715 2 2 6.47715 2 12C2 17.5229 6.47715 22 12 22Z" stroke="#FFC01F" stroke-width="2" stroke-linejoin="round"/>
<path fill-rule="evenodd" clip-rule="evenodd" d="M22 12C22 17.5229 17.5229 22 12 22C6.47715 22 2 17.5229 2 12C2 6.47715 6.47715 2 12 2C17.5229 2 22 6.47715 22 12ZM16.5 9C16.5 8.44772 16.0523 8 15.5 8C14.9477 8 14.5 8.44772 14.5 9V9.5C14.5 10.0523 14.9477 10.5 15.5 10.5C16.0523 10.5 16.5 10.0523 16.5 9.5V9ZM8.5 8C9.05228 8 9.5 8.44772 9.5 9V9.5C9.5 10.0523 9.05228 10.5 8.5 10.5C7.94772 10.5 7.5 10.0523 7.5 9.5V9C7.5 8.44772 7.94772 8 8.5 8ZM8.05279 14.6056C8.5441 14.3599 9.14095 14.5567 9.39039 15.0448L9.39113 15.0462C9.39362 15.0508 9.39968 15.0618 9.40939 15.0782C9.42889 15.1113 9.46265 15.1657 9.51134 15.2345C9.60948 15.373 9.7633 15.5628 9.97686 15.7526C10.3956 16.1248 11.0428 16.5 12 16.5C12.9572 16.5 13.6044 16.1248 14.0231 15.7526C14.2367 15.5628 14.3905 15.373 14.4887 15.2345C14.5373 15.1657 14.5711 15.1113 14.5906 15.0782C14.5974 15.0667 14.6025 15.0578 14.6057 15.0519H14.606L14.6064 15.0511H14.6062C14.6073 15.049 14.6082 15.0474 14.6089 15.0462L14.6096 15.0448C14.6102 15.0437 14.6103 15.0435 14.6099 15.0443M14.6096 15.0448C14.859 14.5567 15.4559 14.3599 15.9472 14.6056C16.4412 14.8526 16.6414 15.4532 16.3944 15.9472L15.5 15.5C16.3944 15.9472 16.3942 15.9477 16.394 15.9481L16.3935 15.9491L16.3925 15.9511L16.3901 15.9557L16.3842 15.9672C16.3797 15.9758 16.3741 15.9864 16.3675 15.9987C16.3541 16.0234 16.3362 16.0554 16.3137 16.0936C16.2687 16.1699 16.2048 16.2718 16.1207 16.3905C15.9532 16.627 15.7008 16.9372 15.3519 17.2474C14.6456 17.8752 13.5428 18.5 12 18.5C10.4572 18.5 9.35443 17.8752 8.64814 17.2474C8.2992 16.9372 8.04677 16.627 7.87929 16.3905C7.79516 16.2718 7.73127 16.1699 7.68631 16.0936C7.6638 16.0554 7.64593 16.0234 7.63255 15.9987C7.62585 15.9864 7.62027 15.9758 7.61579 15.9672L7.60987 15.9557L7.60752 15.9511L7.6065 15.9491L7.60602 15.9481C7.6058 15.9477 7.60557 15.9472 8.5 15.5L7.60557 15.9472C7.35858 15.4532 7.55881 14.8526 8.05279 14.6056M14.6062 15.0511L9.39039 15.0448L14.6057 15.0519C14.6059 15.0517 14.606 15.0514 14.6062 15.0511Z" fill="#FFC01F"/>
</svg>
