<svg width="24" height="24" viewBox="0 0 24 24" fill="none" xmlns="http://www.w3.org/2000/svg">
<path d="M12 22C17.5229 22 22 17.5229 22 12C22 6.47715 17.5229 2 12 2C6.47715 2 2 6.47715 2 12C2 17.5229 6.47715 22 12 22Z" stroke="#FB5963" stroke-width="2" stroke-linejoin="round"/>
<path fill-rule="evenodd" clip-rule="evenodd" d="M22 12C22 17.5229 17.5229 22 12 22C6.47715 22 2 17.5229 2 12C2 6.47715 6.47715 2 12 2C17.5229 2 22 6.47715 22 12ZM12 14.5C10.4572 14.5 9.35443 15.1248 8.64814 15.7526C8.2992 16.0628 8.04677 16.373 7.87929 16.6095C7.79516 16.7282 7.73127 16.8301 7.68631 16.9064C7.6638 16.9446 7.64593 16.9766 7.63255 17.0013C7.62585 17.0136 7.62027 17.0242 7.61579 17.0328L7.60987 17.0443L7.60752 17.0489L7.6065 17.0509L7.60602 17.0519C7.6058 17.0523 7.60557 17.0528 8.5 17.5L7.60557 17.0528C7.35858 17.5468 7.55881 18.1474 8.05279 18.3944C8.5441 18.6401 9.14095 18.4433 9.3904 17.9552L9.39113 17.9538C9.39362 17.9492 9.39968 17.9382 9.40939 17.9218C9.42889 17.8887 9.46265 17.8343 9.51134 17.7655C9.60948 17.627 9.7633 17.4372 9.97686 17.2474C10.3956 16.8752 11.0428 16.5 12 16.5C12.9572 16.5 13.6044 16.8752 14.0231 17.2474C14.2367 17.4372 14.3905 17.627 14.4887 17.7655C14.5373 17.8343 14.5711 17.8887 14.5906 17.9218C14.6003 17.9382 14.6064 17.9492 14.6089 17.9538L14.6096 17.9552C14.859 18.4433 15.4559 18.6401 15.9472 18.3944C16.4412 18.1474 16.6414 17.5468 16.3944 17.0528L15.5 17.5C16.3944 17.0528 16.3942 17.0523 16.394 17.0519L16.3935 17.0509L16.3925 17.0489L16.3901 17.0443L16.3842 17.0328L16.3809 17.0265L16.3675 17.0013C16.3541 16.9766 16.3362 16.9446 16.3137 16.9064C16.2687 16.8301 16.2048 16.7282 16.1207 16.6095C15.9532 16.373 15.7008 16.0628 15.3519 15.7526C14.6456 15.1248 13.5428 14.5 12 14.5ZM17.3944 9.05279C17.6414 9.54676 17.4412 10.1474 16.9472 10.3944L14.9472 11.3944C14.4532 11.6414 13.8526 11.4412 13.6056 10.9472C13.3586 10.4532 13.5588 9.85256 14.0528 9.60557L16.0528 8.60557C16.5468 8.35858 17.1474 8.55881 17.3944 9.05279ZM7.94721 8.60557C7.45324 8.35858 6.85256 8.55881 6.60557 9.05279C6.35858 9.54676 6.55881 10.1474 7.05279 10.3944L9.05279 11.3944C9.54676 11.6414 10.1474 11.4412 10.3944 10.9472C10.6414 10.4532 10.4412 9.85256 9.94721 9.60557L7.94721 8.60557Z" fill="#FB5963"/>
</svg>
