<svg width="157" height="150" viewBox="0 0 157 150" fill="none" xmlns="http://www.w3.org/2000/svg">
<path d="M78.4964 150C87.3025 144.579 191.96 78.6007 144.881 26.4599C111.63 -10.3662 78.4964 29.5096 78.4964 29.5096H78.5034C78.5034 29.5096 45.3697 -10.3662 12.1192 26.4599C-34.9593 78.6007 69.6977 144.579 78.5038 150" fill="#F48187"/>
<path d="M122.422 86.5402C127.254 65.2264 116.163 51.493 116.163 51.493C120.665 48.0871 106.907 -0.038405 84.9436 0.114622C63.7795 0.262268 57.1318 16.7774 57.1318 16.7774C57.1318 16.7774 44.1307 35.8281 56.7158 57.1274C59.7616 62.2823 53.71 87.6878 59.7495 93.6706C97.4144 130.984 122.422 86.5402 122.422 86.5402Z" fill="#321E35"/>
<path d="M79.32 51.452V67.2763C79.32 68.5691 78.7876 69.8051 77.848 70.6927L70.2603 77.8611C70.2603 77.8611 56.0119 102.663 56.3413 111.398C56.6708 120.132 56.3413 129.855 56.3413 129.855H105.099C105.099 129.855 121.983 110.326 123.136 88.9026C124.289 67.4788 99.4157 43.2124 99.4157 43.2124L79.32 51.452Z" fill="#FFC2BD"/>
<path d="M108.914 74.3411C103.744 69.5367 83.0097 86.3485 78.8354 89.5856C51.6566 112.844 47.9403 85.1946 47.9403 85.1946L43.136 90.0494L47.9403 114.769L48.939 128.811C63.2857 140.524 75.6692 148.26 78.4962 150C81.6497 148.058 101.161 135.769 117.479 121.771C119.91 114.009 121.033 105.697 121.862 97.6187C122.964 86.896 116.201 81.114 108.914 74.3411Z" fill="#53A16D"/>
<path d="M51.5747 78.3998C51.5747 78.3998 46.9583 83.1235 44.5872 76.017C44.2866 75.1163 44.1913 74.148 44.3839 73.2181C44.6962 71.7087 45.7858 70.1532 49.376 72.5919" fill="#FFC2BD"/>
<path d="M77.0539 83.9973C76.5024 82.2074 75.133 79.9146 71.732 79.5608C70.4633 79.429 69.2412 80.0902 68.6202 81.2051L66.3068 85.359C66.3068 85.359 64.3161 86.9778 61.7457 90.2085C60.2428 86.7622 57.2941 81.4066 52.9091 79.5965L45.0849 72.5804C45.0849 72.5804 31.3089 96.2509 27.9387 109.602C33.9339 115.892 40.1257 121.471 46.303 126.637C47.5912 126.891 48.5993 126.889 48.5993 126.889C48.5993 126.889 56.8073 120.859 57.6198 106.103C60.3931 106.825 63.9625 105.414 68.5306 100.108C68.5306 100.108 71.578 96.8125 73.6372 89.3966L76.0418 87.3571C77.0113 86.5345 77.4286 85.2127 77.0539 83.9973Z" fill="#FFB3B3"/>
<path d="M50.3064 79.6615C42.658 72.3323 43.4021 61.193 43.4021 61.193C43.137 57.0851 49.7596 51.5005 58.195 50.7629C67.4623 49.9524 77.8797 58.4802 73.9205 68.3879C73.9205 68.3879 81.6903 81.033 65.0268 84.6353C59.2041 85.8942 53.9016 83.1034 50.3064 79.6615Z" fill="#FFC2BD"/>
<path d="M54.8817 58.1544C54.1319 58.1544 53.9692 57.0539 54.6894 56.8377C54.732 56.8245 58.9704 55.4947 60.218 51.1457C60.3203 50.7885 60.692 50.5824 61.0483 50.6853C61.4045 50.7879 61.6102 51.1605 61.5075 51.5174C60.0526 56.5891 55.2758 58.0659 55.0732 58.1264C55.0095 58.1453 54.9451 58.1544 54.8817 58.1544Z" fill="#321E35"/>
<path d="M58.8554 17.8979C58.8554 17.8979 45.7714 47.0366 71.6878 65.2744C71.6878 65.2744 77.5394 68.9 84.0727 61.7588C93.0526 51.9433 97.0004 41.4083 101.625 29.3013L58.8554 17.8979Z" fill="#FFD4CC"/>
<path d="M50.3989 88.0782H48.5991C48.5991 88.0782 50.8156 107.499 59.8478 106.214C53.9452 105.318 51.2275 92.7293 50.3989 88.0782Z" fill="#FF9F9F"/>
<path d="M97.2165 96.7076C102.771 101.368 103.134 109.803 97.9831 114.906C63.9124 148.663 43.6446 153.722 36.7249 125.41C33.7452 113.219 33.2494 100.358 29.9786 88.2945C27.9023 80.6371 35.284 75.5536 35.284 75.5536C39.1751 72.7887 41.4966 67.2323 42.7449 63.1477C43.4319 60.8993 46.6756 61.0735 47.1197 63.3821C48.781 72.0125 39.5119 84.408 39.5119 84.408C39.7317 91.5044 54.8201 118.162 54.8201 118.162C54.8201 118.162 68.3785 106.623 81.8074 96.3602C86.3939 92.8554 92.7947 92.9973 97.2165 96.7076Z" fill="#FFD4CC"/>
<path d="M97.2166 96.7076C92.7945 92.9976 86.3937 92.8553 81.8075 96.3601C77.3695 99.752 72.9179 103.283 68.9456 106.491L84.2688 127.565C88.5615 123.935 93.132 119.713 97.9832 114.906C103.134 109.803 102.771 101.367 97.2166 96.7076Z" fill="#4AC072"/>
<path d="M136.087 83.7763C122.277 58.9025 139.083 53.8096 117.716 20.6464C110.382 9.26324 98.6941 -1.2186 84.9442 0.114921C62.4955 1.1592 57.1323 16.7777 57.1323 16.7777C57.1323 16.7777 63.6462 35.4527 77.9895 44.0243C80.0057 45.229 82.6103 44.1107 83.1185 41.817C83.5412 39.9087 84.4718 38.1325 85.8791 36.7768C88.4045 34.3439 93.3893 33.0322 94.3672 46.1828C96.6799 77.289 104.25 65.9105 104.25 65.9105C104.25 65.9105 108.156 69.7066 97.3485 87.1728C86.965 103.954 100.103 109.849 108.731 110.347C119.114 110.946 114.721 139.914 136.287 124.731C144.295 119.093 146.58 102.676 136.087 83.7763Z" fill="#321E35"/>
</svg>
