<svg width="390" height="450" viewBox="0 0 390 450" fill="none" xmlns="http://www.w3.org/2000/svg">
<g opacity="0.2">
<path d="M224.439 104.75C225.252 105.461 226.02 106.218 226.726 107.037C226.916 107.257 227.203 107.518 227.337 107.777C227.29 107.686 226.723 106.922 227.19 107.604C227.55 108.13 227.913 108.649 228.244 109.196C228.519 109.65 228.778 110.113 229.022 110.583C229.209 110.943 229.675 111.614 229.71 112.021C229.636 111.153 229.497 111.501 229.672 111.949C229.769 112.197 229.863 112.447 229.953 112.699C230.17 113.306 230.365 113.92 230.54 114.54C230.833 115.582 231.068 116.641 231.249 117.709C231.283 117.909 231.29 118.169 231.352 118.355C230.984 117.259 231.312 118.035 231.355 118.427C231.42 119.028 231.469 119.631 231.502 120.235C231.561 121.284 231.573 122.336 231.541 123.387C231.505 124.598 231.24 125.842 231.255 127.044C231.24 125.834 231.285 126.804 231.232 127.136C231.197 127.355 231.159 127.575 231.121 127.794C231.024 128.341 230.915 128.886 230.796 129.428C230.535 130.614 230.219 131.789 229.85 132.946C229.475 134.122 229.039 135.276 228.577 136.421C228.246 137.243 228.51 136.573 228.581 136.412C228.421 136.774 228.262 137.137 228.096 137.497C227.793 138.158 227.477 138.811 227.151 139.46C224.67 144.385 221.569 148.965 218.335 153.42C211.633 162.652 204.494 171.498 200.07 182.12C197.887 187.36 196.522 192.951 196.395 198.645C196.327 201.717 196.863 204.82 196.491 207.883C196.592 207.055 196.471 207.896 196.419 208.131C196.36 208.397 196.294 208.661 196.215 208.922C196.207 208.949 196.074 209.499 196.005 209.546C196.077 209.382 196.15 209.217 196.222 209.053C196.133 209.254 196.037 209.452 195.934 209.648C195.832 209.841 195.724 210.033 195.608 210.22C195.549 210.312 195.49 210.404 195.432 210.496C195.14 210.908 195.187 210.856 195.571 210.34C195.519 210.347 195.213 210.74 195.138 210.816C194.988 210.967 194.833 211.111 194.671 211.248C195.198 210.857 195.256 210.802 194.845 211.083C194.748 211.131 194.327 211.339 194.297 211.388C194.473 211.315 194.648 211.241 194.824 211.167C194.625 211.239 194.421 211.299 194.215 211.348C193.479 211.593 194.53 211.177 194.487 211.323C194.467 211.391 193.782 211.317 193.689 211.321C193.044 211.346 194.812 211.612 193.813 211.334C193.553 211.262 193.288 211.211 193.028 211.136C192.493 210.98 191.784 210.833 191.313 210.524C192.254 211.144 191.47 210.591 191.177 210.465C190.97 210.376 190.762 210.287 190.556 210.198C189.777 209.867 188.997 209.525 188.203 209.231C186.806 208.716 185.298 208.399 183.807 208.358C177.201 208.173 172.624 214.452 168.477 218.705C164.014 223.282 159.55 227.859 155.086 232.436C151.095 236.529 147.203 240.772 142.941 244.588C141.988 245.441 141.012 246.273 140.001 247.057C140.861 246.39 139.843 247.161 139.719 247.251C139.514 247.4 139.307 247.547 139.099 247.692C138.477 248.127 137.841 248.543 137.193 248.937C136.113 249.594 134.995 250.166 133.851 250.704C132.752 251.222 134.444 250.513 133.733 250.751C133.433 250.852 133.14 250.978 132.84 251.082C132.093 251.342 131.334 251.568 130.565 251.757C129.924 251.915 129.276 252.028 128.629 252.157C128.426 252.198 127.721 252.272 128.69 252.161C128.298 252.206 127.907 252.249 127.514 252.28C126.136 252.391 124.751 252.399 123.371 252.32C122.775 252.286 122.184 252.223 121.59 252.171C120.271 252.056 122.549 252.345 121.24 252.126C120.976 252.082 120.713 252.041 120.45 251.995C118.996 251.737 117.558 251.395 116.139 250.986C114.84 250.611 113.559 250.177 112.296 249.696C111.98 249.575 111.665 249.451 111.351 249.324C111.137 249.238 110.308 248.874 111.148 249.243C110.407 248.918 109.67 248.584 108.942 248.232C106.731 247.163 104.581 245.964 102.5 244.66C101.524 244.049 100.564 243.415 99.6189 242.757C99.1469 242.429 98.6784 242.095 98.2144 241.755C97.9822 241.585 97.7511 241.414 97.5211 241.241C97.1308 240.948 96.7381 240.687 97.3624 241.126C95.4073 239.75 93.6067 238.041 91.8769 236.396C90.1246 234.731 88.4529 232.982 86.8662 231.159C86.1102 230.291 85.3732 229.405 84.6563 228.503C84.531 228.346 84.3085 228.132 84.2286 227.96C84.6253 228.81 84.4327 228.225 84.216 227.938C83.8337 227.432 83.4571 226.922 83.0869 226.408C80.2602 222.478 77.7945 218.287 75.7324 213.907C75.4869 213.386 75.2472 212.862 75.0132 212.336C74.9195 212.125 74.8292 211.913 74.7349 211.703C74.2526 210.623 75.1063 212.632 74.6625 211.535C74.2089 210.414 73.7651 209.29 73.3552 208.152C72.5561 205.932 71.8582 203.676 71.2661 201.391C70.6596 199.054 70.1652 196.687 69.7886 194.302C69.753 194.075 69.7179 193.848 69.684 193.62C69.6334 193.279 69.7104 192.327 69.6598 193.484C69.684 192.938 69.5161 192.314 69.4586 191.772C69.3264 190.514 69.2264 189.252 69.1608 187.989C69.0413 185.688 69.039 183.384 69.1407 181.082C69.2482 178.659 66.9337 176.344 64.5089 176.453C61.9075 176.569 59.992 178.487 59.877 181.082C58.9583 201.835 66.9056 222.437 80.5436 237.965C87.3002 245.659 95.6981 252.23 104.996 256.571C110.698 259.233 116.671 261.116 122.977 261.552C129.09 261.974 135.186 260.619 140.56 257.686C145.612 254.928 149.923 250.916 153.947 246.855C158.481 242.279 162.948 237.636 167.446 233.025C169.812 230.598 172.178 228.172 174.544 225.746C176.697 223.538 178.788 221.236 181.041 219.13C181.317 218.872 181.604 218.629 181.887 218.379C181.76 218.491 181.13 218.888 181.837 218.42C182.144 218.216 182.461 218.032 182.772 217.835C183.525 217.359 182.748 217.777 182.655 217.847C182.788 217.747 183.543 217.503 183.704 217.553C183.524 217.578 183.342 217.603 183.162 217.629C183.323 217.616 183.485 217.611 183.647 217.615C183.7 217.615 183.754 217.615 183.808 217.615C184.327 217.653 184.236 217.629 183.536 217.544C183.705 217.442 184.45 217.741 184.643 217.795C185.23 217.962 185.795 218.183 186.365 218.4C186.585 218.484 187.194 218.69 186.192 218.324C186.507 218.439 186.815 218.593 187.123 218.725C188.495 219.309 189.881 219.958 191.351 220.261C194.897 220.994 198.157 220.268 200.976 217.993C203.228 216.175 204.811 213.247 205.388 210.434C206.084 207.038 205.748 203.709 205.664 200.286C205.629 198.882 205.678 197.479 205.811 196.081C205.842 195.754 205.88 195.429 205.918 195.103C205.785 196.252 205.948 194.949 205.976 194.777C206.105 194.002 206.257 193.231 206.431 192.464C206.722 191.184 207.075 189.917 207.479 188.668C207.683 188.041 207.899 187.418 208.127 186.799C208.265 186.427 208.407 186.056 208.553 185.687C208.633 185.483 209.092 184.391 208.693 185.321C209.829 182.676 211.162 180.119 212.619 177.637C215.502 172.724 218.881 168.138 222.281 163.576C229.088 154.44 236.198 144.989 239.253 133.824C241.915 124.096 241.485 112.663 235.908 103.984C234.54 101.856 232.895 99.8715 230.991 98.2043C229.169 96.61 226.209 96.2791 224.44 98.2043C222.834 99.9508 222.492 103.046 224.439 104.75Z" fill="#F7F7F7"/>
<path d="M73.8263 224.6C65.8147 239.924 64.6701 258.158 71.3842 274.172C74.5731 281.778 79.1601 288.611 85.1246 294.332C90.6579 299.64 97.0161 304.009 103.231 308.466C104.908 309.667 106.578 310.878 108.225 312.121C108.37 312.23 108.514 312.339 108.659 312.449C108.669 312.457 109.576 313.155 109.054 312.75C108.571 312.375 109.185 312.854 109.3 312.944C109.538 313.131 109.775 313.318 110.01 313.506C110.811 314.144 111.603 314.793 112.383 315.456C115.543 318.141 118.496 321.063 121.065 324.322C122.571 326.234 126.059 326.016 127.615 324.322C129.478 322.295 129.222 319.816 127.615 317.776C123.029 311.957 117.23 307.307 111.298 302.932C108.413 300.803 105.473 298.75 102.569 296.646C101.144 295.613 99.7313 294.565 98.3314 293.498C99.065 294.057 98.2544 293.435 97.9785 293.218C97.6462 292.956 97.3145 292.693 96.9851 292.427C96.2331 291.821 95.4892 291.205 94.7562 290.576C92.0813 288.28 89.5437 285.815 87.2879 283.104C86.9596 282.709 86.64 282.308 86.3209 281.906C86.8699 282.597 86.183 281.712 86.0001 281.462C85.4322 280.685 84.8848 279.894 84.36 279.088C83.3447 277.53 82.4111 275.919 81.562 274.264C81.1228 273.408 80.7054 272.541 80.3122 271.664C80.1696 271.346 79.8627 270.602 80.1691 271.356C79.9512 270.821 79.7356 270.286 79.5309 269.746C78.8727 268.007 78.3024 266.234 77.8241 264.437C77.3297 262.578 76.9336 260.693 76.6393 258.793C76.6099 258.603 76.5846 258.412 76.5542 258.222C76.4444 257.525 76.6375 259.012 76.568 258.309C76.5237 257.863 76.4645 257.418 76.422 256.971C76.3306 256.014 76.2644 255.055 76.2248 254.094C76.1345 251.89 76.1857 249.681 76.3783 247.483C76.4266 246.932 76.4869 246.383 76.549 245.833C76.6519 244.92 76.5726 245.647 76.5455 245.83C76.5858 245.557 76.626 245.283 76.6697 245.011C76.8543 243.85 77.0773 242.697 77.3377 241.55C77.8431 239.326 78.4893 237.133 79.2694 234.989C79.4585 234.469 79.6557 233.952 79.8603 233.438C79.9627 233.182 80.0662 232.925 80.1737 232.67C79.9943 233.096 80.0345 232.993 80.1984 232.632C80.7123 231.497 81.2493 230.376 81.827 229.272C82.9481 227.127 82.4485 224.145 80.165 222.939C78.0316 221.813 75.0244 222.308 73.8263 224.6Z" fill="#F7F7F7"/>
<path d="M228.683 56.1389C213.93 34.4997 192.807 17.7598 168.408 8.24318C141.825 -2.12488 110.898 -3.23368 84.3729 7.90536C72.6331 12.8352 61.8287 19.9004 52.8415 28.9483C48.3419 33.4782 44.2981 38.5183 40.8632 43.9003C37.1155 49.7723 34.2416 56.1412 31.7869 62.6475C29.2298 69.4249 27.1838 76.3775 25.0003 83.2796C23.9265 86.6755 22.8221 90.0633 21.6022 93.4098C21.1061 94.7708 20.5898 96.1243 20.0494 97.4681C19.9017 97.8358 19.7493 98.2017 19.6004 98.5694C19.1032 99.7948 19.9799 97.7134 19.451 98.9262C19.0802 99.7753 18.7088 100.624 18.3207 101.465C17.0215 104.282 15.5935 107.04 13.9999 109.702C13.2261 110.994 12.4138 112.263 11.5578 113.502C11.1134 114.146 10.6581 114.781 10.1901 115.408C10.1987 115.397 9.4169 116.407 9.84231 115.869C10.1855 115.436 9.31802 116.516 9.23293 116.619C7.26337 119.016 5.09317 121.253 2.71659 123.25C2.4188 123.5 2.11526 123.742 1.81517 123.988C0.817166 124.806 2.57 123.463 1.51853 124.214C0.881558 124.669 0.250906 125.129 -0.402165 125.561C-1.75085 126.452 -3.15012 127.264 -4.57009 128.036C-10.4655 131.245 -16.7192 133.929 -21.5879 138.696C-26.118 143.131 -29.0614 149.141 -30.2112 155.344C-31.4334 161.938 -31.0861 168.698 -29.3344 175.169C-27.412 182.272 -24.0254 188.94 -20.2461 195.22C-18.4795 198.156 -16.6151 201.032 -14.7484 203.905C-13.4308 205.933 -10.5817 206.964 -8.41089 205.565C-6.38326 204.259 -5.33813 201.404 -6.7489 199.232C-10.5541 193.376 -14.3707 187.485 -17.3245 181.14C-17.5119 180.738 -17.6953 180.335 -17.8747 179.929C-17.839 180.009 -18.4099 178.676 -18.1667 179.262C-17.9235 179.848 -18.4685 178.504 -18.4363 178.586C-18.599 178.174 -18.7577 177.761 -18.9112 177.346C-19.5269 175.684 -20.0673 173.994 -20.5151 172.279C-20.8756 170.898 -21.1406 169.507 -21.389 168.103C-21.6103 166.853 -21.2975 169.103 -21.428 167.838C-21.4666 167.462 -21.5114 167.087 -21.5447 166.711C-21.612 165.957 -21.6586 165.201 -21.6833 164.445C-21.7322 162.936 -21.6948 161.423 -21.5637 159.919C-21.5419 159.669 -21.5137 159.42 -21.4907 159.17C-21.3752 157.91 -21.6701 160.159 -21.4631 158.912C-21.32 158.052 -21.1705 157.195 -20.9722 156.345C-20.664 155.022 -20.2737 153.718 -19.7931 152.448C-19.7258 152.271 -19.2308 151.142 -19.704 152.191C-19.6034 151.967 -19.5039 151.744 -19.3998 151.522C-19.0354 150.748 -18.6335 149.99 -18.1955 149.255C-17.8505 148.676 -17.4832 148.113 -17.0928 147.564C-16.9462 147.357 -16.4219 146.695 -17.0434 147.469C-16.8117 147.181 -16.5771 146.895 -16.334 146.617C-15.3032 145.435 -14.1523 144.369 -12.9284 143.39C-13.7367 144.036 -12.6909 143.226 -12.588 143.152C-12.2626 142.919 -11.9326 142.692 -11.5998 142.47C-11.0433 142.098 -10.4776 141.741 -9.90502 141.395C-8.52069 140.559 -7.09726 139.789 -5.66407 139.039C0.172173 135.986 5.82213 133 10.7271 128.519C15.3262 124.317 19.1509 119.221 22.3024 113.867C29.1016 102.315 32.7607 89.3441 36.7815 76.6596C37.8743 73.2114 39.004 69.7736 40.2503 66.3777C40.82 64.826 41.4139 63.2823 42.04 61.7524C42.002 61.8455 42.57 60.4827 42.3263 61.0572C42.0825 61.6323 42.666 60.2759 42.6258 60.3678C43.0472 59.4044 43.483 58.4473 43.9348 57.4982C45.2869 54.6578 46.788 51.8899 48.4551 49.2219C49.1996 48.0304 49.9757 46.8584 50.7811 45.7071C51.2203 45.0792 51.6682 44.4581 52.1246 43.8423C52.3529 43.5349 52.5846 43.2298 52.8157 42.9242C52.3305 43.5654 52.8156 42.9254 53.0324 42.6519C56.7657 37.9438 61.0032 33.6397 65.6207 29.7962C66.1128 29.3866 66.6095 28.9822 67.1102 28.5829C67.4109 28.3433 67.7127 28.1055 68.0162 27.8699C67.1619 28.5329 68.1823 27.7499 68.3013 27.6608C69.5322 26.7376 70.786 25.8448 72.0617 24.9842C74.5084 23.3331 77.0333 21.798 79.6249 20.3853C80.8649 19.7091 82.1199 19.0611 83.3887 18.4418C84.0808 18.104 84.777 17.7747 85.4772 17.4536C85.8273 17.2933 86.1786 17.1348 86.5304 16.9791C86.6494 16.9262 87.9366 16.3644 87.3904 16.6005C86.7408 16.8808 87.9027 16.3891 87.9027 16.3891C88.2591 16.2431 88.6161 16.0995 88.9743 15.9582C89.69 15.6755 90.4092 15.4015 91.1318 15.1361C92.5983 14.5977 94.0787 14.0968 95.5699 13.6332C98.9014 12.5973 102.289 11.7436 105.711 11.0674C107.346 10.7446 108.99 10.4619 110.639 10.22C110.703 10.2108 112.187 10.0109 111.209 10.1368C111.66 10.0787 112.112 10.0236 112.563 9.97128C113.467 9.86672 114.372 9.77422 115.278 9.69321C122.387 9.05724 129.558 9.14112 136.656 9.8874C137.412 9.96669 138.167 10.058 138.923 10.1488C140.413 10.3275 138.016 10.0086 139.501 10.2246C139.953 10.2901 140.405 10.355 140.856 10.4246C142.661 10.7015 144.46 11.0209 146.25 11.3823C149.679 12.074 153.079 12.9191 156.434 13.913C159.585 14.846 162.697 15.9105 165.761 17.0997C166.439 17.3628 167.115 17.6323 167.788 17.9075C167.917 17.9603 169.139 18.4711 168.147 18.0511C168.513 18.2056 168.877 18.363 169.24 18.5216C170.695 19.1559 172.138 19.8183 173.568 20.5082C179.049 23.1538 184.333 26.205 189.368 29.6216C190.573 30.4385 191.763 31.2767 192.938 32.135C193.579 32.6032 194.212 33.0824 194.848 33.5581C195.905 34.3492 194.13 32.987 195.168 33.8028C195.481 34.0481 195.793 34.2923 196.104 34.5393C198.589 36.5156 200.999 38.5861 203.327 40.7451C207.788 44.8821 211.947 49.3443 215.751 54.0919C215.999 54.4016 216.243 54.7142 216.491 55.0244C217.314 56.0568 215.941 54.2902 216.739 55.3421C217.138 55.8689 217.538 56.3963 217.93 56.9277C218.874 58.2043 219.79 59.5009 220.684 60.8125C222.046 62.8101 224.818 63.8924 227.021 62.4734C229.01 61.19 230.142 58.279 228.683 56.1389Z" fill="#F7F7F7"/>
<path d="M-23.7687 220.413C-19.8698 234.007 -12.6079 246.606 -2.73994 256.751C7.37404 267.149 20.0014 274.563 31.8263 282.787C33.2589 283.784 34.6817 284.794 36.0896 285.826C36.7927 286.341 37.4918 286.861 38.1862 287.388C38.3363 287.502 38.4851 287.617 38.6358 287.73C38.6007 287.704 38.008 287.239 38.4196 287.563C38.8025 287.864 39.1871 288.164 39.5677 288.468C42.1098 290.498 44.5646 292.64 46.894 294.911C49.2194 297.179 51.4218 299.576 53.442 302.12C53.5558 302.263 53.6679 302.407 53.7812 302.55C53.7536 302.515 53.304 301.915 53.6133 302.336C53.8651 302.678 54.1238 303.015 54.3738 303.358C54.8366 303.994 55.2868 304.638 55.7242 305.291C56.6268 306.639 57.4737 308.023 58.2532 309.445C58.9471 310.71 59.9635 312.208 60.2934 313.621C60.2871 313.593 59.9807 312.84 60.1699 313.337C60.2544 313.559 60.3469 313.778 60.4332 314C60.5619 314.332 60.6873 314.666 60.808 315.001C61.0902 315.784 61.3495 316.574 61.5852 317.372C62.025 318.861 62.3809 320.373 62.6465 321.903C62.7091 322.265 62.8862 322.79 62.8425 323.15C62.8448 323.133 62.7488 322.265 62.7919 322.818C62.808 323.022 62.8385 323.227 62.8586 323.43C62.9592 324.433 63.0213 325.44 63.0483 326.447C63.0978 328.31 63.0259 330.175 62.8615 332.031C62.8172 332.531 62.7655 333.031 62.708 333.531C62.6833 333.745 62.6557 333.958 62.631 334.173C62.6402 334.093 62.7356 333.465 62.6528 334.011C62.5016 335.01 62.3464 336.008 62.1641 337.002C61.4685 340.798 60.5188 344.541 59.5461 348.275C55.9444 362.102 52.3945 376.93 58.5021 390.61C59.15 392.061 59.9313 393.441 60.8206 394.758C62.1739 396.761 64.961 397.834 67.1582 396.419C69.1548 395.133 70.27 392.232 68.8202 390.086C67.9285 388.766 67.1639 387.385 66.5016 385.937C66.1119 385.085 66.4827 385.985 66.5453 386.042C66.4562 385.962 66.3919 385.649 66.3493 385.536C66.2211 385.197 66.0998 384.856 65.9848 384.512C65.7158 383.71 65.4812 382.897 65.2795 382.075C65.0909 381.309 64.9305 380.536 64.796 379.758C64.7391 379.428 64.6005 379.006 64.6258 378.673C64.6241 378.697 64.7224 379.544 64.6741 378.993C64.6528 378.748 64.6195 378.504 64.5953 378.26C64.4321 376.595 64.3729 374.92 64.3976 373.248C64.4217 371.615 64.5241 369.984 64.6891 368.36C64.7276 367.984 64.769 367.608 64.8138 367.232C64.8431 366.984 64.8615 366.725 64.9075 366.481C64.8994 366.522 64.7839 367.315 64.8713 366.773C65.0012 365.963 65.1185 365.152 65.2611 364.345C65.8814 360.83 66.7535 357.368 67.6503 353.914C69.648 346.221 71.7555 338.502 72.2379 330.53C72.6828 323.177 71.3048 316.029 68.4321 309.276C63.1581 296.88 53.1304 287.136 42.541 279.151C36.8542 274.863 30.8771 270.984 24.9771 267.001C22.0319 265.013 19.1034 262.998 16.2405 260.892C15.5938 260.416 14.951 259.936 14.3118 259.451C14.0991 259.289 13.8863 259.127 13.6742 258.964C13.73 259.007 14.2313 259.402 13.8191 259.074C13.4529 258.783 13.0832 258.497 12.7176 258.206C11.3086 257.081 9.92422 255.925 8.57266 254.732C6.01672 252.474 3.58497 250.078 1.32164 247.526C0.171865 246.231 -0.933663 244.897 -1.9995 243.532C-1.50682 244.163 -2.01157 243.508 -2.20933 243.244C-2.43986 242.937 -2.66806 242.626 -2.89457 242.315C-3.42231 241.589 -3.93801 240.853 -4.44161 240.109C-6.34736 237.294 -8.07717 234.36 -9.61787 231.329C-10.3744 229.841 -11.0562 228.322 -11.7467 226.803C-11.9663 226.319 -11.6794 226.971 -11.657 227.023C-11.7564 226.787 -11.8542 226.55 -11.9513 226.312C-12.0968 225.956 -12.2394 225.599 -12.3796 225.24C-12.7067 224.404 -13.0206 223.563 -13.3196 222.716C-13.8749 221.143 -14.3774 219.553 -14.8373 217.95C-15.5047 215.624 -18.1371 213.942 -20.535 214.718C-22.9018 215.484 -24.4839 217.919 -23.7687 220.413Z" fill="#F7F7F7"/>
<path d="M215.744 81.8389C204.306 78.7418 192.631 82.904 183.152 89.3362C174.156 95.4408 166.971 103.598 158.784 110.661C157.848 111.467 156.9 112.259 155.933 113.029C155.693 113.221 155.451 113.41 155.209 113.6C155.995 112.986 155.323 113.508 155.123 113.659C154.585 114.063 154.041 114.46 153.491 114.848C151.406 116.318 149.23 117.662 146.951 118.812C146.41 119.086 145.862 119.347 145.31 119.598C145.13 119.679 144.05 120.235 145.076 119.708C144.866 119.816 144.612 119.896 144.396 119.98C143.14 120.468 141.858 120.89 140.557 121.242C139.382 121.559 138.194 121.821 136.996 122.032C136.756 122.074 136.517 122.114 136.277 122.152C136.157 122.171 136.037 122.19 135.917 122.208C135.387 122.285 135.436 122.279 136.066 122.193C135.48 122.444 134.513 122.367 133.889 122.418C123.555 123.263 113.279 121.154 103.029 120.202C92.5401 119.227 81.7432 119.695 72.2978 124.844C63.7665 129.495 57.625 137.184 51.8106 144.747C51.1311 145.631 50.4544 146.518 49.7761 147.404C49.4369 147.848 49.096 148.29 48.7562 148.733C48.0819 149.612 49.1978 148.166 48.7637 148.724C48.5234 149.032 48.2843 149.341 48.0434 149.648C46.6027 151.487 45.1327 153.304 43.5926 155.062C42.1393 156.72 40.6233 158.325 39.0165 159.836C38.2168 160.588 37.3953 161.316 36.5485 162.015C36.2605 162.253 35.9667 162.484 35.6753 162.718C36.3536 162.172 35.8132 162.613 35.6707 162.718C35.032 163.187 34.3938 163.656 33.7442 164.11C28.9859 167.438 23.9326 170.345 19.5647 174.206C15.7624 177.567 12.6166 181.788 10.413 186.355C5.71047 196.1 4.59232 207.041 6.35147 217.654C8.18478 228.711 13.261 239.123 19.4623 248.368C20.9754 250.624 22.5684 252.824 24.2143 254.983C24.9772 255.984 25.7177 256.762 26.9824 257.111C28.0914 257.416 29.5677 257.278 30.5513 256.644C32.4496 255.421 33.7833 252.371 32.2133 250.311C28.9192 245.989 25.843 241.496 23.1772 236.758C21.882 234.457 20.6839 232.1 19.6101 229.686C19.4497 229.325 19.291 228.963 19.1369 228.6C19.2053 228.761 19.475 229.433 19.1484 228.613C18.9053 228.002 18.6609 227.393 18.4298 226.777C17.9222 225.426 17.4571 224.058 17.0392 222.676C16.278 220.159 15.6721 217.593 15.2519 214.998C15.2047 214.708 15.1651 214.418 15.1191 214.128C15.0035 213.397 15.2502 215.292 15.1237 214.136C15.0593 213.55 14.9949 212.965 14.946 212.379C14.8489 211.203 14.7919 210.023 14.7776 208.843C14.7632 207.661 14.7908 206.478 14.8609 205.299C14.896 204.71 14.942 204.12 14.9983 203.532C15.0265 203.239 15.0581 202.945 15.0915 202.652C15.2352 201.4 14.9753 203.272 15.1334 202.304C15.5129 199.981 15.9969 197.691 16.7017 195.442C17.0386 194.368 17.3462 193.143 17.8871 192.151C17.4094 193.026 17.7268 192.517 17.8291 192.293C17.9734 191.976 18.1136 191.657 18.2625 191.342C18.5097 190.817 18.769 190.298 19.0398 189.785C19.5807 188.76 20.1689 187.761 20.803 186.792C21.1203 186.308 21.4491 185.831 21.79 185.363C21.8147 185.329 22.5063 184.419 22.055 184.998C21.6377 185.533 22.4862 184.476 22.5661 184.381C24.1724 182.472 25.9953 180.802 27.9338 179.236C27.2181 179.814 27.9057 179.257 28.0919 179.118C28.3552 178.921 28.6203 178.725 28.887 178.532C29.4211 178.146 29.9603 177.767 30.5036 177.393C31.647 176.606 32.8072 175.844 33.9679 175.083C38.3893 172.184 42.7366 169.188 46.5182 165.469C49.7634 162.277 52.6327 158.73 55.4174 155.138C56.9587 153.151 58.4816 151.149 60.0136 149.155C60.6868 148.278 59.5704 149.724 60.0039 149.167C60.1746 148.948 60.3448 148.728 60.5155 148.509C60.857 148.072 61.1996 147.637 61.5446 147.202C62.2655 146.296 62.995 145.396 63.7395 144.509C65.1744 142.798 66.6628 141.13 68.242 139.55C68.9646 138.827 69.7062 138.122 70.4685 137.44C70.8681 137.083 71.2734 136.733 71.685 136.389C71.8908 136.218 72.0972 136.048 72.3059 135.88C72.5623 135.674 73.1216 135.003 72.3812 135.815C73.0567 135.075 74.1783 134.517 75.0228 133.985C75.9829 133.379 76.9705 132.818 77.9846 132.309C78.4365 132.082 78.8958 131.874 79.3534 131.659C80.4681 131.135 78.4474 131.995 79.5931 131.559C79.8191 131.473 80.0438 131.384 80.2703 131.3C81.5058 130.841 82.7676 130.453 84.0468 130.135C85.1442 129.861 86.2538 129.636 87.3708 129.457C87.6634 129.41 87.9589 129.351 88.2544 129.323C87.1333 129.43 87.9842 129.364 88.2659 129.333C88.9201 129.26 89.5749 129.2 90.2314 129.153C92.7086 128.975 95.1967 128.976 97.6768 129.083C107.834 129.523 117.844 131.713 128.022 131.856C133.223 131.93 138.536 131.455 143.55 130.021C148.552 128.59 153.289 126.202 157.567 123.259C166.238 117.297 173.251 109.463 181.118 102.559C182.005 101.781 182.906 101.02 183.823 100.279C184.132 100.031 184.444 99.7875 184.754 99.5393C184.076 100.083 184.62 99.6405 184.759 99.5359C185.396 99.0585 186.034 98.584 186.683 98.1238C188.839 96.5967 191.081 95.1875 193.418 93.9546C194.569 93.348 195.742 92.7827 196.939 92.2725C196.044 92.6534 196.857 92.3167 197.084 92.2277C197.382 92.1111 197.682 91.9973 197.983 91.8881C198.701 91.6279 199.426 91.3866 200.158 91.1694C201.244 90.8471 202.346 90.5754 203.459 90.3634C203.827 90.2933 204.197 90.2336 204.567 90.1727C205.456 90.0268 204.585 90.1479 204.446 90.1887C205.107 89.9963 205.988 90.044 206.677 90.0193C207.927 89.9745 209.163 90.0457 210.408 90.1468C210.645 90.1658 211.291 90.1497 210.297 90.1261C210.659 90.1347 211.062 90.2514 211.417 90.3221C212.045 90.4461 212.666 90.5995 213.282 90.7661C215.619 91.3986 218.423 89.9773 218.98 87.5334C219.535 85.0946 218.247 82.5163 215.744 81.8389Z" fill="#F7F7F7"/>
<path d="M318.488 346.587C335.191 343.488 350.731 334.976 362.926 323.238C375.063 311.555 384.124 296.331 387.82 279.846C391.601 262.983 390.006 244.994 383.693 228.931C377.26 212.564 366.437 198.174 351.894 188.159C337.135 177.996 318.921 172.962 301.063 173.162C282.9 173.366 264.588 178.982 250.08 190.044C242.188 196.061 235.238 203.527 230.941 212.556C226.355 222.19 224.743 232.688 226.782 243.193C226.996 244.293 227.228 245.389 227.436 246.49C227.541 247.043 227.628 247.599 227.727 248.152C227.777 248.432 227.995 248.922 227.719 248.026C227.815 248.336 227.809 248.798 227.836 249.121C227.882 249.66 227.909 250.2 227.91 250.741C227.911 251.126 228.013 251.983 227.837 252.322C227.872 252.254 228.052 251.227 227.852 252.117C227.802 252.34 227.76 252.564 227.702 252.785C227.63 253.06 227.521 253.326 227.45 253.601C227.332 253.922 227.38 253.818 227.594 253.289C227.522 253.447 227.443 253.601 227.359 253.753C227.247 253.959 227.128 254.16 227.001 254.357C226.493 255.14 226.692 254.348 227.076 254.299C226.881 254.324 226.482 254.94 226.314 255.097C226.172 255.229 225.51 255.62 226.153 255.269C226.839 254.895 226.075 255.319 225.956 255.4C225.572 255.662 225.172 255.903 224.765 256.128C224.433 256.31 224.095 256.482 223.754 256.645C223.539 256.749 223.32 256.845 223.104 256.946C222.939 257.022 222.332 257.254 222.994 256.999C223.752 256.708 222.846 257.057 222.743 257.098C222.563 257.17 222.382 257.242 222.201 257.314C221.749 257.492 221.296 257.667 220.844 257.846C216.801 259.441 212.721 261.296 210.434 265.225C207.586 270.12 208.461 276.485 208.516 281.905C208.573 287.498 208.63 293.093 208.687 298.687C208.745 304.32 208.674 309.983 209.744 315.54C211.594 325.147 217.878 332.941 225.524 338.715C233.015 344.371 242.176 348.055 251.379 349.747C261.262 351.565 271.436 351.348 281.201 348.924C285.954 347.745 290.561 345.987 294.945 343.812C297.12 342.734 297.898 339.481 296.607 337.479C295.171 335.254 292.597 334.665 290.269 335.818C289.232 336.332 288.183 336.82 287.121 337.28C288.043 336.881 286.692 337.447 286.444 337.545C285.846 337.78 285.244 338.005 284.64 338.22C282.461 338.996 280.239 339.648 277.989 340.179C276.989 340.414 275.982 340.625 274.972 340.812C274.403 340.918 273.833 341.015 273.261 341.104C272.946 341.154 272.626 341.22 272.308 341.247C272.96 341.191 272.694 341.198 272.201 341.257C269.903 341.534 267.591 341.688 265.276 341.719C263.025 341.75 260.773 341.666 258.532 341.463C257.956 341.412 257.38 341.352 256.805 341.285C256.655 341.267 255.835 341.171 256.464 341.247C257.205 341.338 255.951 341.172 255.934 341.17C254.79 340.998 253.651 340.796 252.518 340.562C250.253 340.097 248.013 339.508 245.812 338.796C244.834 338.481 243.865 338.14 242.904 337.776C242.363 337.57 241.829 337.351 241.291 337.137C240.578 336.853 242.289 337.592 241.156 337.076C240.864 336.943 240.569 336.816 240.277 336.682C238.332 335.792 236.433 334.8 234.601 333.695C233.691 333.146 232.799 332.57 231.924 331.967C231.535 331.698 231.15 331.424 230.769 331.145C230.589 331.012 230.37 330.874 230.201 330.721C231.019 331.464 230.224 330.736 230.022 330.574C228.377 329.248 226.821 327.809 225.391 326.253C225.076 325.909 224.766 325.56 224.464 325.205C224.313 325.028 224.164 324.85 224.016 324.67C223.99 324.638 223.281 323.738 223.729 324.32C224.111 324.818 223.657 324.218 223.567 324.095C223.396 323.862 223.227 323.626 223.062 323.389C222.733 322.914 222.415 322.431 222.111 321.94C221.626 321.155 221.173 320.349 220.76 319.524C220.657 319.318 220.556 319.111 220.457 318.901C220.437 318.857 219.944 317.828 220.265 318.506C220.541 319.085 220.226 318.406 220.167 318.257C220.04 317.933 219.918 317.607 219.803 317.279C219.439 316.246 219.139 315.192 218.897 314.125C218.771 313.57 218.66 313.011 218.563 312.45C218.57 312.492 218.347 311.111 218.451 311.798C218.54 312.395 218.387 311.253 218.374 311.14C217.803 305.878 217.971 300.525 217.917 295.239C217.862 289.798 217.806 284.357 217.751 278.916C217.738 277.637 217.72 276.358 217.712 275.079C217.705 273.951 217.594 272.675 217.845 271.568C217.621 272.556 217.805 271.845 217.856 271.654C217.938 271.346 217.994 271.032 218.084 270.725C218.123 270.589 218.372 269.815 218.169 270.379C217.935 271.027 218.419 269.924 218.434 269.897C218.528 269.737 218.636 269.586 218.732 269.427C219.032 268.928 218.908 269.59 218.503 269.712C218.754 269.636 219.244 268.954 219.449 268.752C219.973 268.234 219.246 268.932 219.142 268.967C219.265 268.927 219.465 268.733 219.585 268.652C219.927 268.42 220.281 268.207 220.641 268.006C221.009 267.801 221.384 267.611 221.764 267.43C221.936 267.348 222.108 267.269 222.28 267.192C222.786 266.964 223.128 267.089 222.23 267.205C222.921 267.116 223.739 266.604 224.393 266.347C225.53 265.899 226.664 265.438 227.779 264.939C231.885 263.101 235.239 259.984 236.543 255.575C237.965 250.762 236.683 245.682 235.75 240.911C235.656 240.433 235.564 239.955 235.481 239.475C235.432 239.194 235.242 237.713 235.357 238.749C235.219 237.505 235.119 236.261 235.091 235.01C235.065 233.892 235.086 232.774 235.153 231.657C235.185 231.132 235.227 230.607 235.278 230.083C235.31 229.756 235.353 229.429 235.387 229.101C235.446 228.527 235.253 229.864 235.41 228.961C235.82 226.611 236.327 224.3 237.06 222.027C237.405 220.956 237.789 219.896 238.209 218.852C238.297 218.632 238.662 217.816 238.279 218.674C238.388 218.432 238.493 218.189 238.603 217.948C238.878 217.345 239.165 216.748 239.464 216.158C240.518 214.075 241.725 212.07 243.056 210.153C243.346 209.736 243.642 209.323 243.942 208.914C244.093 208.709 244.249 208.509 244.398 208.304C243.861 209.042 244.253 208.488 244.373 208.338C245.127 207.396 245.9 206.47 246.706 205.572C248.192 203.915 249.771 202.342 251.425 200.852C252.277 200.085 253.15 199.34 254.039 198.616C254.436 198.294 254.835 197.977 255.238 197.663C254.517 198.224 255.062 197.801 255.212 197.69C255.52 197.462 255.826 197.232 256.135 197.007C259.662 194.439 263.414 192.176 267.325 190.244C268.224 189.8 269.132 189.372 270.048 188.963C270.263 188.867 270.479 188.772 270.695 188.677C270.732 188.661 271.805 188.209 271.118 188.493C270.53 188.736 271.238 188.446 271.382 188.388C271.71 188.254 272.038 188.123 272.367 187.994C274.289 187.241 276.239 186.562 278.212 185.957C282.275 184.714 286.433 183.784 290.637 183.167C290.727 183.154 291.335 183.083 291.338 183.067C291.334 183.089 290.171 183.213 291.161 183.093C291.63 183.036 292.099 182.979 292.569 182.927C293.686 182.806 294.804 182.706 295.925 182.627C298.048 182.478 300.176 182.407 302.305 182.413C304.374 182.419 306.444 182.498 308.508 182.65C309.569 182.729 310.63 182.826 311.687 182.943C312.158 182.995 312.627 183.052 313.096 183.11C314.092 183.232 312.92 183.097 312.92 183.085C312.92 183.093 313.927 183.231 313.973 183.238C318.119 183.867 322.22 184.795 326.23 186.022C328.204 186.626 330.157 187.302 332.081 188.05C332.576 188.243 333.068 188.44 333.559 188.642C333.812 188.746 334.593 189.008 333.595 188.655C333.812 188.732 334.034 188.845 334.244 188.937C335.215 189.364 336.178 189.81 337.132 190.275C340.952 192.138 344.625 194.304 348.091 196.763C348.835 197.29 349.606 197.808 350.305 198.394C349.382 197.62 350.615 198.645 350.836 198.823C351.277 199.178 351.714 199.537 352.147 199.902C353.66 201.175 355.124 202.507 356.537 203.89C357.989 205.313 359.386 206.792 360.726 208.32C361.359 209.041 361.978 209.775 362.585 210.518C362.907 210.912 363.223 211.31 363.539 211.708C363.984 212.268 363.504 211.558 363.439 211.574C363.478 211.565 364.018 212.339 364.053 212.384C366.457 215.599 368.628 218.987 370.555 222.507C371.506 224.245 372.398 226.015 373.228 227.813C373.442 228.275 373.651 228.74 373.857 229.206C373.959 229.437 374.702 230.959 374.125 229.817C374.579 230.716 374.895 231.718 375.249 232.66C376.661 236.422 377.814 240.281 378.695 244.202C379.129 246.133 379.496 248.079 379.796 250.035C379.839 250.314 379.88 250.594 379.921 250.874C379.945 251.043 380.032 251.784 379.953 251.099C379.862 250.306 379.99 251.42 379.999 251.492C380.026 251.717 380.053 251.941 380.078 252.165C380.191 253.176 380.287 254.188 380.364 255.202C380.671 259.255 380.683 263.331 380.383 267.385C380.316 268.285 380.234 269.185 380.137 270.084C380.082 270.589 380.018 271.093 379.957 271.598C379.871 272.319 380.134 270.427 379.963 271.543C379.919 271.823 379.88 272.102 379.837 272.382C379.534 274.336 379.156 276.277 378.702 278.201C377.784 282.094 376.557 285.912 375.052 289.618C374.975 289.808 374.841 290.041 374.799 290.234C374.992 289.363 375.01 289.742 374.877 290.048C374.677 290.505 374.477 290.963 374.271 291.418C373.836 292.378 373.382 293.33 372.911 294.272C372.042 296.009 371.11 297.715 370.121 299.387C369.131 301.06 368.083 302.699 366.98 304.3C366.413 305.124 365.831 305.938 365.235 306.741C365.01 307.044 364.557 307.452 364.432 307.807C364.645 307.201 364.817 307.315 364.543 307.661C364.336 307.923 364.13 308.185 363.921 308.445C361.447 311.525 358.764 314.436 355.897 317.153C354.443 318.531 352.942 319.86 351.397 321.136C351.011 321.454 350.622 321.77 350.231 322.082C350.056 322.221 349.882 322.358 349.707 322.497C349.406 322.735 349.16 322.684 349.853 322.386C349.022 322.743 348.178 323.645 347.438 324.172C344.179 326.494 340.761 328.592 337.209 330.434C335.484 331.329 333.728 332.163 331.945 332.934C331.676 333.05 330.99 333.428 331.978 332.923C331.785 333.021 331.559 333.096 331.362 333.176C330.95 333.343 330.537 333.506 330.123 333.666C329.191 334.026 328.253 334.37 327.308 334.695C323.627 335.963 319.856 336.951 316.029 337.661C313.641 338.104 312.069 341.116 312.794 343.355C313.617 345.907 315.93 347.062 318.488 346.587Z" fill="#F7F7F7"/>
<path d="M193.131 374.202C193.391 373.798 193.662 373.405 193.938 373.012C193.992 372.935 194.357 372.45 194.007 372.908C193.632 373.397 194.107 372.792 194.203 372.678C194.775 371.991 195.384 371.335 196.024 370.71C196.667 370.083 197.34 369.489 198.038 368.924C198.154 368.83 198.773 368.369 198.279 368.729C197.816 369.067 198.314 368.709 198.388 368.656C198.833 368.342 199.275 368.026 199.729 367.725C201.254 366.716 202.851 365.819 204.491 365.012C205.302 364.613 206.135 364.161 206.988 363.861C206.109 364.17 207.062 363.833 207.401 363.697C207.907 363.495 208.416 363.299 208.927 363.108C217.068 360.078 225.649 358.222 233.373 354.125C237.526 351.923 241.432 348.95 244.423 345.31C245.958 343.441 246.39 340.568 244.423 338.764C242.723 337.205 239.514 336.765 237.873 338.764C236.598 340.315 235.174 341.727 233.617 342.994C233.513 343.079 232.857 343.581 233.317 343.238C233.742 342.919 233.216 343.307 233.16 343.347C232.734 343.649 232.31 343.953 231.876 344.242C231.01 344.817 230.119 345.355 229.209 345.856C228.381 346.312 227.536 346.735 226.682 347.137C226.178 347.374 225.668 347.599 225.159 347.824C225.329 347.748 225.947 347.504 225.11 347.843C224.852 347.948 224.594 348.052 224.335 348.155C222.325 348.949 220.278 349.651 218.223 350.318C210.363 352.871 202.191 355.052 195.205 359.63C191.202 362.253 187.731 365.493 185.132 369.528C183.817 371.568 184.646 374.728 186.794 375.861C189.094 377.076 191.729 376.378 193.131 374.202Z" fill="#F7F7F7"/>
<path d="M303.622 372.478C302.14 365.193 296.882 358.929 290.448 355.385C282.903 351.23 273.932 350.801 265.682 352.844C257.428 354.889 250.165 359.452 243.613 364.73C237.353 369.773 231.609 375.522 226.278 381.527C220.04 388.554 214.36 396.098 209.334 404.035C211.759 403.723 214.184 403.41 216.609 403.098C211.384 398.599 206.158 394.1 200.933 389.602C195.945 385.308 190.712 381.182 186.004 376.579C184.957 375.556 183.954 374.483 183.042 373.337C183.688 374.15 182.887 373.102 182.813 372.996C182.661 372.778 182.513 372.557 182.368 372.334C181.864 371.557 181.412 370.747 181.001 369.918C180.885 369.682 180.771 369.443 180.66 369.204C180.6 369.073 180.098 367.86 180.498 368.858C180.252 368.244 180.015 367.627 179.791 367.005C179.25 365.503 178.771 363.982 178.274 362.466C176.361 356.628 173.858 351.325 169.887 346.599C162.247 337.509 150.06 332.873 138.38 335.7C132.486 337.126 127.389 340.507 123.748 345.323C120.481 349.646 118.653 355.323 118.857 360.747C119.082 366.717 121.689 371.925 125.66 376.295C129.047 380.022 133.225 382.905 136.914 386.309C137.816 387.141 138.691 388.003 139.514 388.913C139.887 389.324 140.243 389.748 140.597 390.175C141.323 391.053 140.033 389.319 140.763 390.405C141.061 390.848 141.374 391.28 141.662 391.73C143.251 394.212 144.474 396.903 145.623 399.61C145.21 398.637 145.732 399.876 145.781 399.994C145.884 400.242 145.988 400.491 146.091 400.739C146.504 401.729 146.919 402.719 147.339 403.706C147.915 405.056 148.513 406.395 149.156 407.716C150.363 410.196 151.704 412.611 153.172 414.947C159.328 424.74 167.574 433.234 177.386 439.397C187.772 445.919 199.965 449.631 212.227 449.976C224.459 450.321 236.33 446.877 247.07 441.175C257.535 435.619 266.857 428.084 275.773 420.35C277.911 418.495 280.031 416.618 282.147 414.737C283.963 413.122 283.917 409.814 282.147 408.19C280.209 406.413 277.533 406.468 275.597 408.19C271.399 411.922 267.187 415.637 262.843 419.198C261.791 420.06 260.731 420.913 259.662 421.754C259.459 421.914 259.254 422.073 259.051 422.233C258.034 423.036 259.792 421.673 258.762 422.459C258.145 422.929 257.528 423.398 256.907 423.86C254.639 425.548 252.325 427.175 249.953 428.714C247.711 430.17 245.416 431.548 243.065 432.822C241.897 433.455 240.715 434.062 239.518 434.64C238.894 434.942 238.265 435.237 237.632 435.522C237.402 435.626 237.172 435.728 236.941 435.83C236.711 435.932 236.479 436.032 236.247 436.131C236.773 435.91 236.793 435.901 236.308 436.102C233.849 437.093 231.354 437.976 228.8 438.69C227.455 439.066 226.098 439.397 224.731 439.68C224.101 439.811 223.469 439.933 222.836 440.042C222.575 440.088 222.314 440.131 222.053 440.173C221.848 440.206 220.153 440.426 221.321 440.288C218.564 440.613 215.797 440.778 213.02 440.736C211.567 440.714 210.115 440.64 208.667 440.516C208.008 440.459 207.351 440.392 206.694 440.315C206.692 440.315 205.404 440.139 206.13 440.246C206.744 440.336 205.308 440.116 205.176 440.095C202.367 439.638 199.589 438.994 196.864 438.172C195.533 437.771 194.214 437.327 192.911 436.841C192.29 436.61 191.676 436.363 191.06 436.12C189.83 435.634 191.907 436.51 190.701 435.969C190.339 435.806 189.975 435.648 189.613 435.482C187.01 434.29 184.486 432.926 182.062 431.402C181.026 430.751 180.007 430.071 179.008 429.365C178.509 429.011 178.014 428.651 177.524 428.285C177.383 428.179 176.412 427.415 177.296 428.116C177.009 427.888 176.72 427.662 176.434 427.431C172.338 424.123 168.621 420.349 165.34 416.234C165.231 416.098 164.476 415.115 165.159 416.012C164.973 415.768 164.788 415.524 164.604 415.278C164.201 414.738 163.805 414.192 163.416 413.641C162.638 412.539 161.89 411.415 161.172 410.274C159.769 408.042 158.482 405.737 157.317 403.372C156.733 402.187 156.182 400.985 155.658 399.773C155.551 399.527 155.445 399.28 155.34 399.033C155.756 400.005 155.23 398.768 155.18 398.651C154.869 397.905 154.559 397.159 154.246 396.415C153.002 393.457 151.751 390.487 150.083 387.736C147.307 383.154 143.454 379.626 139.373 376.238C137.568 374.739 135.751 373.249 134.052 371.628C133.182 370.797 132.343 369.931 131.563 369.015C131.422 368.849 131.286 368.681 131.147 368.514C130.43 367.654 131.722 369.338 131.079 368.422C130.706 367.889 130.337 367.357 130.003 366.798C129.724 366.331 129.463 365.852 129.223 365.362C129.058 365.023 128.504 364.416 129.152 365.26C129.052 365.131 128.967 364.776 128.92 364.643C128.736 364.128 128.58 363.603 128.449 363.072C128.371 362.754 128.302 362.434 128.242 362.113C128.202 361.899 128.166 361.684 128.134 361.469C128.161 361.663 128.189 361.857 128.216 362.051C127.985 361.793 128.112 360.606 128.109 360.257C128.102 359.656 128.123 359.055 128.174 358.457C128.183 358.359 128.176 357.92 128.241 357.803C128.215 357.996 128.189 358.189 128.163 358.382C128.196 358.165 128.233 357.949 128.273 357.733C128.394 357.084 128.546 356.441 128.729 355.806C128.882 355.277 129.055 354.753 129.25 354.236C129.289 354.133 129.329 354.03 129.369 353.927C129.56 353.454 129.534 353.517 129.288 354.117C129.357 354.076 129.515 353.628 129.57 353.516C130.133 352.365 130.815 351.31 131.547 350.261C131.942 349.695 130.813 351.093 131.539 350.285C131.761 350.039 131.97 349.782 132.195 349.539C132.569 349.133 132.96 348.743 133.367 348.371C133.571 348.185 133.779 348.004 133.991 347.827C134.221 347.636 134.656 347.097 134.001 347.808C134.433 347.34 135.217 346.966 135.766 346.642C136.271 346.344 136.788 346.068 137.315 345.812C137.421 345.762 137.527 345.712 137.633 345.662C138.105 345.451 138.059 345.466 137.492 345.707C137.604 345.604 137.983 345.512 138.148 345.45C139.469 344.957 140.836 344.587 142.224 344.337C142.311 344.321 142.922 344.226 142.922 344.222C142.746 344.245 142.569 344.268 142.393 344.291C142.627 344.262 142.862 344.237 143.097 344.215C143.686 344.161 144.277 344.126 144.869 344.111C145.461 344.097 146.053 344.103 146.646 344.13C147.001 344.146 147.356 344.169 147.71 344.2C147.909 344.218 149.146 344.309 147.893 344.196C149.113 344.306 150.367 344.641 151.538 344.986C152.162 345.17 152.78 345.377 153.387 345.61C153.602 345.692 153.832 345.772 154.041 345.87C152.901 345.336 154.315 346.019 154.523 346.121C155.563 346.633 156.571 347.211 157.54 347.847C157.795 348.014 158.854 348.525 158.964 348.843C158.836 348.743 158.708 348.642 158.58 348.542C158.763 348.685 158.944 348.83 159.124 348.977C159.394 349.197 159.659 349.423 159.921 349.652C160.883 350.497 161.793 351.401 162.648 352.354C163.037 352.789 163.408 353.238 163.781 353.688C164.32 354.339 163.798 353.684 163.703 353.58C164.012 353.915 164.265 354.341 164.525 354.716C165.191 355.677 165.808 356.672 166.374 357.695C166.657 358.205 166.926 358.724 167.183 359.248C167.337 359.563 167.486 359.88 167.631 360.198C167.727 360.411 167.822 360.624 167.914 360.838C167.712 360.36 167.677 360.283 167.808 360.607C169.799 366.142 171.206 372.216 174.479 377.175C177.964 382.456 183.023 386.37 187.764 390.452C192.757 394.751 197.75 399.05 202.743 403.348C205.182 405.447 207.62 407.547 210.058 409.647C212.358 411.627 215.65 411.366 217.332 408.71C219.392 405.457 221.557 402.272 223.835 399.168C224.364 398.447 224.899 397.731 225.438 397.019C225.553 396.868 226.198 396.024 225.954 396.341C225.62 396.774 226.149 396.092 226.225 395.995C226.394 395.779 226.565 395.563 226.735 395.347C227.929 393.837 229.149 392.347 230.394 390.879C235.314 385.08 240.628 379.595 246.315 374.543C247.673 373.336 249.058 372.158 250.478 371.025C250.688 370.857 251.668 370.103 250.971 370.631C251.293 370.388 251.614 370.145 251.938 369.905C252.748 369.307 253.57 368.726 254.405 368.164C255.961 367.118 257.562 366.139 259.213 365.251C259.979 364.838 260.756 364.445 261.543 364.073C261.907 363.901 262.274 363.736 262.642 363.572C263.461 363.207 262.839 363.491 262.669 363.559C262.924 363.458 263.178 363.355 263.434 363.257C265.227 362.569 267.071 362.005 268.946 361.583C269.817 361.387 270.693 361.242 271.572 361.092C272.29 360.969 270.835 361.152 271.56 361.096C271.764 361.081 271.968 361.052 272.171 361.032C272.714 360.98 273.259 360.941 273.804 360.916C274.687 360.875 275.571 360.871 276.454 360.905C276.929 360.923 277.403 360.952 277.877 360.993C278.078 361.01 278.282 361.041 278.484 361.053C279.199 361.094 277.758 360.922 278.464 361.044C280.239 361.351 281.98 361.742 283.671 362.374C283.724 362.394 284.101 362.579 284.141 362.555C283.983 362.65 283.255 362.157 284.116 362.55C284.474 362.712 284.828 362.884 285.176 363.064C285.974 363.475 286.751 363.93 287.498 364.427C287.849 364.659 288.321 364.891 288.599 365.202C288.589 365.191 287.928 364.654 288.326 364.993C288.539 365.174 288.759 365.346 288.971 365.529C289.605 366.076 290.21 366.656 290.781 367.268C291.085 367.593 291.378 367.927 291.662 368.27C291.719 368.339 291.894 368.633 291.976 368.657C291.791 368.603 291.473 367.966 291.852 368.517C292.353 369.246 292.835 369.981 293.255 370.762C293.464 371.151 293.652 371.549 293.841 371.947C293.9 372.072 294.05 372.576 293.868 372.002C293.647 371.308 293.972 372.322 293.991 372.375C294.286 373.213 294.51 374.07 294.687 374.94C295.171 377.316 298.117 378.906 300.385 378.172C302.909 377.357 304.14 375.025 303.622 372.478Z" fill="#F7F7F7"/>
<path d="M308.301 357.41C309.556 360.42 310.605 363.509 311.421 366.667C311.828 368.244 312.18 369.836 312.475 371.439C312.622 372.241 312.745 373.045 312.875 373.85C313.083 375.145 312.81 373.232 312.903 374.032C312.958 374.504 313.018 374.975 313.068 375.448C313.413 378.689 313.531 381.954 313.42 385.212C313.364 386.84 313.252 388.467 313.082 390.088C313.04 390.493 312.991 390.897 312.944 391.301C312.838 392.209 312.925 391.461 312.95 391.283C312.815 392.224 312.665 393.162 312.494 394.096C311.917 397.241 311.118 400.346 310.097 403.377C309.636 404.748 309.122 406.098 308.581 407.439C308.261 408.235 308.576 407.475 308.629 407.333C308.503 407.669 308.34 407.998 308.193 408.326C307.848 409.095 307.489 409.858 307.115 410.614C305.836 413.208 304.392 415.72 302.799 418.133C302.068 419.24 301.306 420.325 300.514 421.388C300.404 421.535 299.659 422.504 300.362 421.601C300.14 421.887 299.916 422.171 299.69 422.452C299.161 423.11 298.621 423.758 298.07 424.396C295.942 426.857 293.642 429.171 291.19 431.31C290.645 431.785 290.093 432.251 289.533 432.709C289.253 432.939 288.969 433.161 288.688 433.389C288.282 433.707 288.31 433.687 288.77 433.331C288.578 433.478 288.386 433.623 288.193 433.768C286.842 434.78 285.452 435.736 284.031 436.647C281.993 437.953 280.975 440.819 282.369 442.98C283.683 445.016 286.524 446.039 288.706 444.641C299.317 437.842 308.19 428.341 314.124 417.216C320.527 405.211 323.513 391.462 322.548 377.882C321.989 370.007 320.275 362.241 317.235 354.949C316.749 353.784 316.241 352.846 315.106 352.182C314.113 351.602 312.65 351.356 311.537 351.716C309.394 352.409 307.302 355.017 308.301 357.41Z" fill="#F7F7F7"/>
<path d="M316.602 113.7C319.252 107.574 316.939 99.7841 309.366 96.4006C303.317 93.6989 296.549 97.4097 296.549 97.4097C296.549 97.4097 295.533 89.7623 289.772 86.4909C282.56 82.3975 274.907 85.146 271.538 90.9085C268.207 96.6026 269.663 103.996 271.18 109.287C273.242 116.48 277.577 124.931 280.412 129.272C285.592 128.984 294.973 127.47 301.995 124.872C307.161 122.96 313.983 119.755 316.602 113.7Z" fill="#F7F7F7"/>
</g>
</svg>
