<svg width="144" height="154" viewBox="0 0 144 154" fill="none" xmlns="http://www.w3.org/2000/svg">
<path d="M87.3945 35.8478C87.6729 36.0914 87.9355 36.3503 88.1771 36.6305C88.2422 36.706 88.3404 36.795 88.3863 36.8839C88.3701 36.8528 88.1761 36.5911 88.3359 36.8245C88.4593 37.0046 88.5836 37.1823 88.6967 37.3693C88.7908 37.5246 88.8795 37.6831 88.9629 37.8441C89.0268 37.9674 89.1866 38.197 89.1984 38.336C89.173 38.0392 89.1256 38.1583 89.1854 38.3115C89.2187 38.3966 89.2509 38.4821 89.2816 38.5682C89.3558 38.7758 89.4225 38.986 89.4823 39.1982C89.5828 39.555 89.6633 39.9174 89.7253 40.2826C89.7369 40.3511 89.739 40.4403 89.7605 40.5038C89.6344 40.1287 89.7465 40.3943 89.7613 40.5284C89.7837 40.7343 89.8004 40.9405 89.8118 41.1471C89.8319 41.5063 89.836 41.8663 89.8252 42.2259C89.8126 42.6402 89.7221 43.066 89.7272 43.4775C89.7221 43.0635 89.7375 43.3953 89.7192 43.5088C89.7072 43.5839 89.6944 43.659 89.6812 43.7341C89.6481 43.9213 89.611 44.1076 89.57 44.2932C89.4807 44.6992 89.3727 45.1013 89.2464 45.4973C89.1179 45.8997 88.9688 46.2947 88.8108 46.6863C88.6973 46.9677 88.7878 46.7384 88.8122 46.6832C88.7573 46.8073 88.7028 46.9315 88.6462 47.0548C88.5423 47.2807 88.4343 47.5044 88.3225 47.7264C87.4738 49.4119 86.4126 50.9793 85.3055 52.504C83.0119 55.6633 80.569 58.6904 79.0549 62.3255C78.3079 64.119 77.8409 66.0324 77.7974 67.9809C77.774 69.0322 77.9573 70.0941 77.8302 71.1422C77.8647 70.8589 77.8232 71.1469 77.8054 71.2273C77.7854 71.3183 77.7626 71.4086 77.7356 71.4978C77.7329 71.5071 77.6876 71.6954 77.6638 71.7116C77.6886 71.6553 77.7134 71.5989 77.7382 71.5427C77.7075 71.6115 77.6746 71.6793 77.6396 71.7462C77.6046 71.8124 77.5676 71.8781 77.528 71.942C77.5078 71.9734 77.4877 72.0049 77.4676 72.0365C77.3679 72.1775 77.3838 72.1598 77.5155 71.9833C77.4975 71.9856 77.3929 72.1199 77.3671 72.1459C77.316 72.1976 77.2626 72.2469 77.2072 72.2939C77.3878 72.16 77.4076 72.1412 77.267 72.2375C77.2337 72.2538 77.0897 72.3252 77.0793 72.3419C77.1395 72.3167 77.1995 72.2914 77.2597 72.2662C77.1914 72.2908 77.1218 72.3114 77.0512 72.3281C76.7993 72.4121 77.1592 72.2695 77.1442 72.3197C77.1373 72.3427 76.9032 72.3175 76.8711 72.3187C76.6506 72.3273 77.2556 72.4184 76.9136 72.3234C76.8247 72.2986 76.734 72.2811 76.6451 72.2554C76.4619 72.2021 76.2191 72.152 76.0582 72.0462C76.3803 72.2581 76.1119 72.069 76.0116 72.0259C75.9408 71.9955 75.8697 71.965 75.7989 71.9347C75.5325 71.8213 75.2655 71.7041 74.9937 71.6036C74.5156 71.4273 73.9995 71.3189 73.4894 71.3048C71.2287 71.2417 69.6624 73.3902 68.2431 74.8457C66.7157 76.4121 65.188 77.9784 63.6605 79.5448C62.2945 80.9454 60.9628 82.3976 59.5042 83.7036C59.178 83.9956 58.8441 84.2801 58.4981 84.5485C58.7922 84.3204 58.444 84.5843 58.4015 84.6149C58.3313 84.6658 58.2604 84.7164 58.1892 84.7659C57.9763 84.9145 57.7589 85.0569 57.5372 85.192C57.1675 85.4169 56.7847 85.6125 56.3934 85.7967C56.0174 85.9739 56.5962 85.7311 56.353 85.8127C56.2503 85.8473 56.15 85.8903 56.0475 85.9259C55.7917 86.015 55.5318 86.0922 55.2688 86.1571C55.0494 86.2112 54.8277 86.2495 54.6062 86.294C54.5367 86.3079 54.2955 86.3333 54.6271 86.2953C54.4931 86.3107 54.3591 86.3252 54.2247 86.336C53.7531 86.3738 53.279 86.3765 52.8068 86.3496C52.603 86.338 52.4006 86.3164 52.1973 86.2987C51.7458 86.2592 52.5255 86.3582 52.0775 86.2833C51.9874 86.2682 51.8973 86.2542 51.8074 86.2383C51.3096 86.1502 50.8174 86.0331 50.3318 85.8931C49.8874 85.7649 49.4489 85.6163 49.0166 85.4515C48.9084 85.4102 48.8008 85.3677 48.6934 85.3245C48.6202 85.295 48.3363 85.1703 48.6238 85.2968C48.3702 85.1853 48.1181 85.0713 47.8689 84.9507C47.1122 84.5847 46.3766 84.1743 45.6642 83.7282C45.3304 83.5192 45.0018 83.302 44.6784 83.0771C44.5168 82.9646 44.3565 82.8504 44.1977 82.734C44.1182 82.6758 44.0392 82.6174 43.9605 82.5582C43.8269 82.4579 43.6925 82.3685 43.9062 82.5189C43.237 82.0478 42.6209 81.4629 42.0289 80.9002C41.4292 80.3304 40.8571 79.7318 40.3141 79.1079C40.0554 78.8107 39.8032 78.5075 39.5578 78.199C39.5149 78.1451 39.4388 78.072 39.4115 78.0132C39.5472 78.304 39.4813 78.1037 39.4071 78.0056C39.2763 77.8326 39.1474 77.658 39.0207 77.482C38.0534 76.137 37.2096 74.7029 36.5039 73.204C36.4198 73.0257 36.3378 72.8464 36.2577 72.6661C36.2257 72.5941 36.1948 72.5216 36.1625 72.4494C35.9975 72.0798 36.2896 72.7675 36.1377 72.3922C35.9825 72.0084 35.8306 71.6239 35.6903 71.2342C35.4169 70.4745 35.178 69.7024 34.9754 68.9207C34.7678 68.1209 34.5986 67.3109 34.4698 66.4946C34.4576 66.4169 34.4456 66.3391 34.434 66.2612C34.4167 66.1446 34.443 65.8186 34.4257 66.2148C34.434 66.0276 34.3765 65.8143 34.3569 65.6287C34.3116 65.1982 34.2774 64.7664 34.2549 64.3343C34.214 63.5467 34.2132 62.758 34.248 61.9702C34.2848 61.1413 33.4928 60.349 32.6629 60.3862C31.7727 60.4261 31.1172 61.0822 31.0778 61.9702C30.7634 69.0727 33.4831 76.1228 38.1504 81.4369C40.4626 84.0699 43.3366 86.3189 46.5186 87.8045C48.4699 88.7156 50.5138 89.3599 52.6719 89.5089C54.7642 89.6534 56.8502 89.1898 58.6893 88.1859C60.4181 87.2422 61.8934 85.8691 63.2706 84.4793C64.8222 82.9135 66.3511 81.3245 67.8902 79.7463C68.7 78.916 69.5098 78.0856 70.3195 77.2553C71.0563 76.4998 71.7717 75.7119 72.5429 74.9914C72.6373 74.9031 72.7355 74.8197 72.8323 74.7342C72.7888 74.7726 72.5732 74.9086 72.8152 74.7482C72.9204 74.6784 73.0288 74.6157 73.1353 74.5482C73.3928 74.385 73.127 74.5282 73.0951 74.5523C73.1408 74.5179 73.3991 74.4344 73.4542 74.4515C73.3924 74.4601 73.3304 74.4688 73.2686 74.4774C73.3239 74.4731 73.3792 74.4715 73.4345 74.4727C73.4528 74.4727 73.4713 74.4729 73.4896 74.4729C73.6674 74.4859 73.6363 74.4776 73.3965 74.4484C73.4544 74.4136 73.7093 74.5158 73.7754 74.5345C73.9765 74.5915 74.1697 74.6672 74.3647 74.7415C74.44 74.7702 74.6484 74.8408 74.3055 74.7155C74.4135 74.7549 74.5187 74.8075 74.6244 74.8526C75.0938 75.0525 75.5681 75.2745 76.071 75.3783C77.2847 75.6292 78.4004 75.3807 79.365 74.6021C80.1358 73.98 80.6774 72.9781 80.8748 72.0153C81.113 70.8532 80.9981 69.714 80.9692 68.5424C80.9574 68.0621 80.9741 67.5818 81.0198 67.1035C81.0304 66.9916 81.0432 66.8801 81.0562 66.7686C81.0109 67.1621 81.0666 66.7162 81.0762 66.6572C81.1201 66.3917 81.1722 66.1279 81.2319 65.8656C81.3314 65.4274 81.4522 64.9941 81.5905 64.5667C81.6602 64.352 81.7341 64.1386 81.8124 63.9269C81.8594 63.7995 81.908 63.6727 81.958 63.5462C81.9855 63.4766 82.1425 63.1027 82.006 63.421C82.3946 62.5158 82.851 61.6409 83.3493 60.7916C84.336 59.1102 85.4924 57.5407 86.6559 55.9794C88.9855 52.853 91.4186 49.6187 92.4643 45.7977C93.3754 42.4685 93.2282 38.5558 91.3194 35.5857C90.8514 34.8575 90.2885 34.1784 89.6367 33.6078C89.0133 33.0622 88.0002 32.949 87.3949 33.6078C86.8452 34.2055 86.7283 35.2648 87.3945 35.8478Z" fill="#675143"/>
<path d="M35.8517 76.863C33.11 82.1073 32.7183 88.3475 35.016 93.8279C36.1073 96.4308 37.6771 98.7693 39.7182 100.727C41.6119 102.544 43.7878 104.039 45.9147 105.564C46.4884 105.975 47.0601 106.389 47.6236 106.815C47.6732 106.852 47.7228 106.89 47.7721 106.927C47.7757 106.93 48.0861 107.169 47.9073 107.03C47.7422 106.902 47.9522 107.066 47.9917 107.097C48.073 107.16 48.154 107.224 48.2347 107.289C48.5087 107.507 48.7796 107.729 49.0466 107.956C50.1281 108.875 51.1385 109.875 52.0178 110.99C52.5332 111.644 53.727 111.57 54.2594 110.99C54.8968 110.297 54.8095 109.448 54.2594 108.75C52.69 106.759 50.7053 105.167 48.6754 103.67C47.6879 102.942 46.6818 102.239 45.6883 101.519C45.2006 101.166 44.717 100.807 44.2379 100.441C44.489 100.633 44.2116 100.42 44.1171 100.346C44.0034 100.256 43.8899 100.166 43.7772 100.075C43.5198 99.8677 43.2652 99.6567 43.0144 99.4415C42.099 98.656 41.2306 97.8122 40.4586 96.8844C40.3462 96.7493 40.2369 96.6121 40.1277 96.4745C40.3155 96.7112 40.0804 96.408 40.0179 96.3225C39.8235 96.0568 39.6362 95.7859 39.4566 95.5101C39.1091 94.9769 38.7896 94.4256 38.4991 93.8594C38.3487 93.5664 38.2059 93.2697 38.0713 92.9693C38.0225 92.8606 37.9175 92.6062 38.0224 92.8641C37.9478 92.6811 37.874 92.4981 37.804 92.3132C37.5787 91.7179 37.3835 91.1114 37.2199 90.4962C37.0507 89.8602 36.9151 89.2151 36.8144 88.5647C36.8043 88.4996 36.7957 88.4344 36.7853 88.3695C36.7477 88.1308 36.8138 88.6396 36.79 88.3992C36.7748 88.2464 36.7546 88.094 36.74 87.9413C36.7087 87.6137 36.6861 87.2854 36.6725 86.9567C36.6416 86.2023 36.6592 85.4463 36.7251 84.6941C36.7416 84.5056 36.7622 84.3176 36.7835 84.1296C36.8187 83.817 36.7916 84.0659 36.7823 84.1287C36.7961 84.0351 36.8099 83.9415 36.8248 83.8481C36.888 83.451 36.9643 83.0562 37.0534 82.6639C37.2263 81.9027 37.4475 81.1522 37.7145 80.4185C37.7792 80.2405 37.8467 80.0636 37.9167 79.8878C37.9517 79.8 37.9871 79.7121 38.0239 79.6248C37.9626 79.7707 37.9763 79.7353 38.0324 79.6118C38.2083 79.2233 38.392 78.8399 38.5897 78.462C38.9734 77.7281 38.8024 76.7073 38.021 76.2946C37.2909 75.9095 36.2617 76.0788 35.8517 76.863Z" fill="#675143"/>
<path d="M88.8469 19.212C83.7984 11.8066 76.5694 6.07781 68.2196 2.821C59.1224 -0.727181 48.5385 -1.10664 39.4609 2.70539C35.4433 4.39248 31.7458 6.81036 28.6702 9.90674C27.1303 11.457 25.7465 13.1818 24.571 15.0236C23.2884 17.0332 22.3049 19.2128 21.4648 21.4394C20.5897 23.7587 19.8895 26.1381 19.1423 28.5001C18.7748 29.6623 18.3969 30.8217 17.9794 31.9669C17.8096 32.4327 17.633 32.8959 17.448 33.3557C17.3975 33.4816 17.3453 33.6068 17.2944 33.7326C17.1242 34.152 17.4242 33.4397 17.2432 33.8547C17.1163 34.1453 16.9892 34.4357 16.8564 34.7237C16.4118 35.6875 15.9231 36.6314 15.3777 37.5423C15.1129 37.9845 14.8349 38.4188 14.542 38.8431C14.3899 39.0633 14.2341 39.2807 14.0739 39.4952C14.0769 39.4913 13.8093 39.8371 13.9549 39.6531C14.0724 39.5049 13.7755 39.8743 13.7464 39.9095C13.0724 40.7299 12.3297 41.4955 11.5163 42.1789C11.4144 42.2644 11.3106 42.3472 11.2079 42.4315C10.8663 42.7113 11.4662 42.2519 11.1063 42.5088C10.8884 42.6643 10.6725 42.8218 10.449 42.9697C9.98748 43.2746 9.50862 43.5524 9.02268 43.8168C7.00512 44.9151 4.865 45.8334 3.19882 47.4647C1.64851 48.9827 0.641211 51.0394 0.247734 53.1622C-0.170533 55.4189 -0.0516979 57.7324 0.547765 59.9467C1.20566 62.3774 2.36464 64.6594 3.658 66.8087C4.26258 67.8134 4.90061 68.7976 5.53942 69.7807C5.99035 70.4749 6.96538 70.8276 7.70827 70.349C8.40217 69.902 8.75984 68.925 8.27704 68.1817C6.97483 66.1774 5.66868 64.1616 4.65783 61.9903C4.5937 61.8527 4.53093 61.7146 4.46955 61.5758C4.48175 61.6032 4.28639 61.1468 4.36961 61.3474C4.45283 61.5479 4.26632 61.0881 4.27734 61.116C4.22166 60.9752 4.16736 60.8336 4.11483 60.6917C3.90413 60.1229 3.7192 59.5445 3.56594 58.9576C3.44258 58.4852 3.35188 58.009 3.26689 57.5287C3.19114 57.1009 3.29817 57.8708 3.25351 57.438C3.24033 57.3093 3.22498 57.1809 3.21357 57.0521C3.19056 56.7941 3.17461 56.5356 3.16615 56.2769C3.14943 55.7604 3.16222 55.2427 3.20708 54.7278C3.21455 54.6423 3.2242 54.5569 3.23207 54.4716C3.27161 54.0403 3.17068 54.81 3.2415 54.3833C3.29049 54.0888 3.34165 53.7957 3.40952 53.5047C3.51497 53.0521 3.64856 52.6058 3.81304 52.1711C3.83605 52.1106 4.00544 51.724 3.84352 52.083C3.87795 52.0066 3.912 51.9301 3.94761 51.8542C4.07234 51.5891 4.20986 51.3298 4.35977 51.0784C4.47782 50.8804 4.60354 50.6875 4.73712 50.4995C4.78729 50.429 4.96672 50.2023 4.75404 50.4673C4.83333 50.3686 4.9136 50.2709 4.99682 50.1755C5.34957 49.7709 5.74343 49.4062 6.16229 49.0712C5.88568 49.2924 6.24355 49.015 6.27877 48.9898C6.39012 48.91 6.50305 48.8323 6.61696 48.7562C6.8074 48.629 7.00099 48.5069 7.19695 48.3886C7.67069 48.1023 8.15782 47.8388 8.64829 47.5823C10.6456 46.5373 12.5791 45.5155 14.2577 43.982C15.8316 42.5442 17.1405 40.8001 18.219 38.9677C20.5459 35.0145 21.7981 30.5755 23.1741 26.2346C23.5481 25.0546 23.9347 23.8781 24.3612 22.7159C24.5562 22.1849 24.7594 21.6566 24.9737 21.133C24.9607 21.1649 25.1551 20.6985 25.0716 20.8951C24.9882 21.0919 25.1879 20.6278 25.1741 20.6592C25.3184 20.3295 25.4675 20.002 25.6221 19.6772C26.0849 18.7051 26.5985 17.7579 27.1691 16.8448C27.4239 16.4371 27.6895 16.036 27.9651 15.642C28.1154 15.4271 28.2687 15.2146 28.4249 15.0038C28.503 14.8986 28.5823 14.7942 28.6614 14.6896C28.4953 14.909 28.6613 14.69 28.7355 14.5964C30.0131 12.9852 31.4633 11.5122 33.0435 10.1969C33.2119 10.0568 33.3819 9.91834 33.5533 9.7817C33.6562 9.69971 33.7594 9.61832 33.8633 9.53771C33.571 9.7646 33.9202 9.49662 33.9609 9.46614C34.3821 9.1502 34.8112 8.84467 35.2478 8.55015C36.0851 7.9851 36.9492 7.45976 37.8361 6.9763C38.2604 6.7449 38.6899 6.52312 39.1241 6.31118C39.361 6.19558 39.5992 6.08291 39.8389 5.97301C39.9587 5.91816 40.0789 5.86389 40.1993 5.81061C40.24 5.79253 40.6805 5.60024 40.4936 5.68105C40.2713 5.77699 40.6689 5.6087 40.6689 5.6087C40.7909 5.55876 40.9131 5.50961 41.0356 5.46125C41.2806 5.36452 41.5267 5.27073 41.774 5.17989C42.2759 4.99567 42.7825 4.82424 43.2928 4.66558C44.4329 4.31109 45.5921 4.01893 46.7633 3.78752C47.323 3.67703 47.8853 3.58029 48.4497 3.49752C48.4716 3.49438 48.9795 3.42596 48.6449 3.46902C48.7991 3.44916 48.9538 3.43028 49.1082 3.41239C49.4175 3.37661 49.7272 3.34496 50.0372 3.31723C52.4703 3.09959 54.9244 3.1283 57.3533 3.38369C57.6123 3.41082 57.8706 3.44209 58.1291 3.47315C58.6392 3.53429 57.8186 3.42517 58.327 3.49909C58.4816 3.52151 58.6363 3.54373 58.7907 3.56752C59.4085 3.66228 60.0241 3.77159 60.6365 3.89526C61.8103 4.13198 62.9736 4.42119 64.1218 4.76132C65.2003 5.08061 66.2652 5.44493 67.3136 5.85191C67.5458 5.94195 67.7772 6.03416 68.0075 6.12834C68.0516 6.14643 68.4697 6.32121 68.1303 6.17749C68.2554 6.23038 68.3802 6.28424 68.5045 6.33851C69.0024 6.55556 69.4963 6.78225 69.9855 7.01838C71.8611 7.92375 73.6695 8.96793 75.3927 10.1372C75.8049 10.4167 76.2121 10.7036 76.6143 10.9973C76.8336 11.1576 77.0502 11.3215 77.2678 11.4843C77.6298 11.7551 77.0221 11.2889 77.3776 11.5681C77.4844 11.652 77.5915 11.7356 77.6977 11.8201C78.5482 12.4965 79.373 13.205 80.1695 13.9439C81.6962 15.3596 83.1196 16.8867 84.4215 18.5115C84.5064 18.6174 84.5899 18.7244 84.6747 18.8306C84.9564 19.1839 84.4866 18.5793 84.7595 18.9393C84.8962 19.1196 85.0329 19.3001 85.1673 19.4819C85.4901 19.9188 85.8036 20.3625 86.1095 20.8114C86.5756 21.495 87.5244 21.8654 88.2783 21.3798C88.959 20.9406 89.3462 19.9444 88.8469 19.212Z" fill="#675143"/>
<path d="M2.45233 75.4301C3.78661 80.0825 6.27183 84.3943 9.64885 87.866C13.1101 91.4244 17.4314 93.9616 21.4782 96.7762C21.9684 97.1171 22.4554 97.463 22.9372 97.8159C23.1778 97.9922 23.417 98.1704 23.6547 98.3507C23.706 98.3896 23.757 98.4289 23.8085 98.4676C23.7965 98.4586 23.5937 98.2997 23.7346 98.4104C23.8656 98.5134 23.9972 98.6161 24.1275 98.7201C24.9974 99.4149 25.8375 100.148 26.6347 100.925C27.4305 101.701 28.1842 102.522 28.8755 103.392C28.9145 103.441 28.9529 103.49 28.9916 103.539C28.9822 103.527 28.8283 103.322 28.9342 103.466C29.0203 103.583 29.1089 103.698 29.1944 103.816C29.3528 104.033 29.5069 104.254 29.6566 104.478C29.9655 104.939 30.2553 105.412 30.5221 105.899C30.7595 106.332 31.1073 106.845 31.2203 107.328C31.2181 107.319 31.1132 107.061 31.178 107.231C31.2069 107.307 31.2386 107.382 31.2681 107.458C31.3122 107.571 31.355 107.686 31.3964 107.8C31.493 108.068 31.5817 108.339 31.6623 108.612C31.8128 109.121 31.9346 109.639 32.0255 110.162C32.047 110.286 32.1076 110.466 32.0926 110.589C32.0934 110.583 32.0605 110.286 32.0753 110.476C32.0808 110.545 32.0912 110.615 32.0981 110.685C32.1326 111.028 32.1538 111.373 32.1631 111.718C32.18 112.355 32.1554 112.993 32.0991 113.628C32.084 113.8 32.0662 113.971 32.0466 114.142C32.0381 114.215 32.0287 114.288 32.0202 114.361C32.0234 114.334 32.056 114.119 32.0277 114.306C31.9759 114.648 31.9228 114.989 31.8605 115.329C31.6224 116.629 31.2974 117.91 30.9645 119.187C29.7319 123.919 28.5171 128.994 30.6072 133.675C30.829 134.172 31.0963 134.644 31.4007 135.095C31.8638 135.781 32.8176 136.148 33.5695 135.663C34.2528 135.223 34.6345 134.231 34.1383 133.496C33.8332 133.044 33.5715 132.572 33.3449 132.076C33.2115 131.785 33.3384 132.093 33.3598 132.112C33.3293 132.085 33.3073 131.978 33.2927 131.939C33.2489 131.823 33.2073 131.706 33.168 131.589C33.0759 131.314 32.9956 131.036 32.9266 130.755C32.8621 130.492 32.8072 130.228 32.7611 129.962C32.7417 129.849 32.6942 129.704 32.7029 129.59C32.7023 129.599 32.736 129.888 32.7194 129.7C32.7122 129.616 32.7007 129.533 32.6925 129.449C32.6366 128.879 32.6163 128.306 32.6248 127.734C32.6331 127.175 32.6681 126.617 32.7245 126.061C32.7377 125.932 32.7519 125.804 32.7672 125.675C32.7773 125.59 32.7836 125.501 32.7993 125.418C32.7965 125.432 32.757 125.703 32.7869 125.518C32.8314 125.241 32.8715 124.963 32.9203 124.687C33.1326 123.484 33.431 122.299 33.7379 121.117C34.4216 118.485 35.1429 115.843 35.3079 113.115C35.4602 110.599 34.9886 108.152 34.0055 105.841C32.2006 101.599 28.7689 98.2645 25.145 95.5319C23.1988 94.0644 21.1533 92.7369 19.1342 91.3738C18.1263 90.6934 17.1241 90.0037 16.1444 89.2829C15.923 89.1201 15.7031 88.9559 15.4843 88.7898C15.4115 88.7346 15.3387 88.6789 15.2661 88.6233C15.2852 88.6378 15.4568 88.7731 15.3157 88.661C15.1904 88.5613 15.0639 88.4634 14.9388 88.3638C14.4566 87.9788 13.9828 87.5832 13.5203 87.1749C12.6456 86.4022 11.8134 85.5822 11.0388 84.709C10.6453 84.2657 10.267 83.8093 9.90224 83.342C10.0708 83.5581 9.89811 83.334 9.83043 83.2437C9.75154 83.1383 9.67344 83.0322 9.59593 82.9256C9.41532 82.6771 9.23884 82.4252 9.0665 82.1708C8.41431 81.2074 7.82233 80.2032 7.29507 79.1661C7.03616 78.6567 6.80283 78.137 6.56654 77.617C6.49139 77.4514 6.58956 77.6746 6.59723 77.6925C6.5632 77.6115 6.52975 77.5305 6.4965 77.4491C6.44672 77.3272 6.39793 77.2049 6.34993 77.0822C6.23799 76.7962 6.13056 76.5081 6.02826 76.2183C5.83821 75.6802 5.66626 75.136 5.50887 74.5875C5.28045 73.7914 4.37958 73.2157 3.55899 73.4811C2.74901 73.7436 2.20759 74.5769 2.45233 75.4301Z" fill="#675143"/>
<path d="M84.419 28.007C80.5047 26.9471 76.5091 28.3715 73.2653 30.5728C70.1867 32.6619 67.7279 35.4536 64.9259 37.8705C64.6058 38.1465 64.2812 38.4174 63.9505 38.6809C63.8683 38.7465 63.7854 38.8114 63.7026 38.8763C63.9715 38.6663 63.7417 38.845 63.6731 38.8965C63.4889 39.0348 63.303 39.1706 63.1147 39.3033C62.4012 39.8064 61.6565 40.2665 60.8766 40.6601C60.6913 40.7537 60.5038 40.8432 60.3147 40.9289C60.2534 40.9566 59.8837 41.1469 60.2347 40.9668C60.1629 41.0036 60.0761 41.0309 60.0021 41.0596C59.5723 41.2267 59.1335 41.3712 58.6883 41.4916C58.2864 41.6001 57.8795 41.6899 57.4695 41.7621C57.3877 41.7764 57.3056 41.7902 57.2236 41.8032C57.1825 41.8095 57.1416 41.816 57.1004 41.8223C56.919 41.8484 56.936 41.8466 57.1514 41.817C56.9507 41.9029 56.62 41.8767 56.4065 41.894C52.87 42.1832 49.3533 41.4617 45.8454 41.1357C42.2559 40.8021 38.561 40.9621 35.3285 42.7243C32.4089 44.3158 30.3072 46.9474 28.3173 49.5356C28.0848 49.8382 27.8532 50.1417 27.6211 50.4449C27.505 50.5967 27.3884 50.7481 27.2721 50.8996C27.0413 51.2005 27.4232 50.7058 27.2746 50.8965C27.1924 51.0019 27.1106 51.1077 27.0281 51.2128C26.5351 51.8422 26.032 52.4641 25.505 53.0655C25.0076 53.6329 24.4888 54.1824 23.9389 54.6995C23.6653 54.9567 23.3841 55.206 23.0943 55.445C22.9958 55.5264 22.8952 55.6055 22.7955 55.6857C23.0276 55.4987 22.8427 55.6497 22.7939 55.6855C22.5753 55.8461 22.3569 56.0065 22.1346 56.162C20.5062 57.3008 18.7769 58.2958 17.2821 59.617C15.9808 60.7672 14.9043 62.2119 14.1502 63.7747C12.5409 67.1097 12.1582 70.8539 12.7602 74.4859C13.3876 78.2698 15.1248 81.8331 17.2471 84.9971C17.7649 85.769 18.31 86.5218 18.8733 87.2609C19.1344 87.6034 19.3878 87.8698 19.8206 87.9889C20.2001 88.0933 20.7053 88.0461 21.042 87.8293C21.6916 87.4107 22.148 86.3669 21.6107 85.6618C20.4834 84.183 19.4307 82.6453 18.5184 81.0239C18.0751 80.2363 17.6651 79.4296 17.2976 78.6037C17.2427 78.4802 17.1884 78.3563 17.1357 78.2319C17.1591 78.2871 17.2514 78.5171 17.1396 78.2364C17.0564 78.0274 16.9728 77.8188 16.8937 77.6082C16.72 77.1456 16.5608 76.6775 16.4178 76.2044C16.1573 75.3431 15.9499 74.4652 15.8061 73.577C15.79 73.4779 15.7764 73.3784 15.7607 73.2793C15.7212 73.0292 15.8056 73.6776 15.7623 73.2819C15.7402 73.0815 15.7182 72.8814 15.7015 72.6806C15.6682 72.2782 15.6487 71.8744 15.6438 71.4705C15.6389 71.0661 15.6484 70.6615 15.6724 70.2578C15.6844 70.0561 15.7001 69.8544 15.7194 69.6533C15.729 69.5528 15.7398 69.4523 15.7512 69.3521C15.8004 68.9237 15.7115 69.564 15.7656 69.2329C15.8955 68.4378 16.0611 67.6544 16.3023 66.8846C16.4176 66.517 16.5228 66.0976 16.708 65.7583C16.5445 66.0577 16.6531 65.8835 16.6881 65.8068C16.7375 65.6983 16.7855 65.5892 16.8365 65.4813C16.9211 65.3018 17.0098 65.124 17.1024 64.9484C17.2876 64.5979 17.4888 64.256 17.7058 63.9243C17.8144 63.7586 17.927 63.5954 18.0436 63.4352C18.0521 63.4236 18.2888 63.1121 18.1343 63.3103C17.9915 63.4936 18.2819 63.1316 18.3092 63.0994C18.8589 62.4458 19.4828 61.8745 20.1462 61.3385C19.9013 61.5363 20.1366 61.3458 20.2003 61.2982C20.2904 61.2306 20.3811 61.1637 20.4724 61.0977C20.6552 60.9654 20.8397 60.8356 21.0256 60.7076C21.4169 60.4385 21.814 60.1776 22.2112 59.9173C23.7243 58.9252 25.212 57.8999 26.5062 56.627C27.6168 55.5347 28.5987 54.321 29.5517 53.0916C30.0791 52.4115 30.6003 51.7266 31.1246 51.0442C31.355 50.7441 30.9729 51.2388 31.1213 51.0483C31.1797 50.9734 31.2379 50.8981 31.2964 50.8232C31.4132 50.6735 31.5305 50.5245 31.6485 50.3759C31.8952 50.0656 32.1449 49.7577 32.3997 49.454C32.8907 48.8685 33.4001 48.2977 33.9405 47.7571C34.1878 47.5095 34.4416 47.2683 34.7025 47.0351C34.8392 46.9128 34.9779 46.7929 35.1188 46.6753C35.1892 46.6168 35.2599 46.5585 35.3313 46.5011C35.419 46.4307 35.6105 46.2011 35.3571 46.4787C35.5882 46.2255 35.9721 46.0348 36.2611 45.8525C36.5896 45.6453 36.9276 45.4532 37.2747 45.279C37.4293 45.2014 37.5865 45.1302 37.7431 45.0567C38.1246 44.8774 37.4331 45.1715 37.8252 45.0224C37.9025 44.993 37.9794 44.9623 38.0569 44.9336C38.4797 44.7765 38.9115 44.644 39.3493 44.5349C39.7249 44.4413 40.1046 44.3644 40.4868 44.3029C40.587 44.2868 40.6881 44.2669 40.7892 44.2573C40.4056 44.2938 40.6968 44.2712 40.7932 44.2604C41.017 44.2354 41.2411 44.215 41.4658 44.1989C42.3135 44.1379 43.165 44.1385 44.0138 44.1751C47.4897 44.3255 50.9156 45.075 54.3986 45.1241C56.1785 45.1493 57.9968 44.9869 59.7125 44.4959C61.4246 44.0062 63.0455 43.1889 64.5096 42.1821C67.477 40.1417 69.877 37.4605 72.5692 35.0979C72.8726 34.8317 73.1811 34.5714 73.4951 34.3178C73.6005 34.2326 73.7075 34.1494 73.8134 34.0645C73.5814 34.2505 73.7676 34.0991 73.8154 34.0633C74.0333 33.9 74.2515 33.7376 74.4738 33.5801C75.2116 33.0575 75.9787 32.5752 76.7786 32.1533C77.1723 31.9457 77.5739 31.7522 77.9835 31.5776C77.6773 31.708 77.9553 31.5928 78.0331 31.5623C78.1352 31.5224 78.2377 31.4834 78.3408 31.4461C78.5865 31.357 78.8346 31.2745 79.0852 31.2001C79.4568 31.0898 79.8338 30.9969 80.2147 30.9243C80.3408 30.9003 80.4673 30.8799 80.5938 30.859C80.8984 30.8091 80.6003 30.8506 80.5527 30.8645C80.7789 30.7987 81.0802 30.815 81.316 30.8065C81.7439 30.7912 82.1667 30.8156 82.5929 30.8502C82.6739 30.8567 82.8951 30.8512 82.5549 30.8431C82.6789 30.846 82.8168 30.886 82.9383 30.9102C83.1532 30.9526 83.3655 31.0051 83.5766 31.0621C84.3761 31.2786 85.3358 30.7922 85.5265 29.9558C85.7163 29.1212 85.2756 28.2388 84.419 28.007Z" fill="#675143"/>
<path d="M119.58 118.61C125.296 117.549 130.615 114.636 134.788 110.619C138.942 106.621 142.042 101.411 143.307 95.7696C144.601 89.9985 144.055 83.8425 141.895 78.3454C139.693 72.744 135.989 67.8194 131.013 64.3923C125.962 60.9144 119.729 59.1913 113.617 59.2599C107.401 59.3297 101.135 61.2517 96.1695 65.0374C93.4688 67.0965 91.0903 69.6516 89.6196 72.7415C88.0504 76.0384 87.4988 79.631 88.1966 83.226C88.2698 83.6025 88.3491 83.9776 88.4203 84.3545C88.4561 84.5437 88.486 84.7338 88.5201 84.9233C88.5372 85.0189 88.6116 85.1866 88.5173 84.8799C88.55 84.986 88.5478 85.1443 88.5573 85.2548C88.5728 85.4392 88.582 85.624 88.5826 85.8092C88.583 85.9409 88.6179 86.2341 88.5575 86.3503C88.5695 86.3271 88.6312 85.9756 88.5628 86.2799C88.5456 86.3564 88.5311 86.4329 88.5112 86.5086C88.4866 86.6027 88.4495 86.694 88.4251 86.7879C88.3847 86.8978 88.4011 86.8623 88.4742 86.6812C88.4496 86.7351 88.4229 86.7879 88.394 86.8398C88.3558 86.9104 88.3151 86.9791 88.2716 87.0465C88.0977 87.3147 88.1656 87.0435 88.2972 87.0268C88.2305 87.0353 88.0939 87.2462 88.0363 87.2999C87.9877 87.3451 87.7611 87.4788 87.9814 87.3589C88.2161 87.2309 87.9546 87.3758 87.9139 87.4035C87.7823 87.4934 87.6456 87.5758 87.5061 87.6526C87.3928 87.7152 87.2771 87.7737 87.1604 87.8298C87.0866 87.8652 87.0119 87.8982 86.9377 87.9326C86.8814 87.9587 86.6737 88.038 86.9003 87.9509C87.1594 87.8512 86.8494 87.9705 86.8141 87.9847C86.7526 88.0095 86.6908 88.034 86.6288 88.0584C86.4742 88.1196 86.3191 88.1795 86.1643 88.2407C84.7808 88.7867 83.3844 89.4213 82.602 90.7659C81.6271 92.4412 81.9268 94.6194 81.9456 96.474C81.9651 98.3884 81.9846 100.303 82.0041 102.217C82.0237 104.145 81.9995 106.083 82.3659 107.985C82.999 111.272 85.1495 113.94 87.7662 115.916C90.3297 117.851 93.4645 119.112 96.6141 119.691C99.9962 120.313 103.478 120.239 106.82 119.41C108.446 119.006 110.023 118.404 111.523 117.66C112.268 117.291 112.534 116.178 112.092 115.493C111.601 114.731 110.72 114.53 109.923 114.924C109.568 115.1 109.209 115.267 108.846 115.425C109.161 115.288 108.699 115.482 108.614 115.515C108.41 115.596 108.204 115.673 107.997 115.746C107.251 116.012 106.491 116.235 105.721 116.417C105.378 116.497 105.034 116.569 104.688 116.634C104.493 116.67 104.298 116.703 104.103 116.733C103.995 116.75 103.885 116.773 103.777 116.782C103.999 116.763 103.909 116.766 103.74 116.786C102.953 116.881 102.162 116.933 101.37 116.944C100.6 116.954 99.829 116.926 99.0619 116.856C98.8648 116.839 98.6677 116.818 98.4711 116.795C98.4196 116.789 98.139 116.756 98.3545 116.782C98.6081 116.813 98.1788 116.757 98.1731 116.756C97.7816 116.697 97.3916 116.628 97.0038 116.548C96.2287 116.389 95.4622 116.187 94.7091 115.944C94.3744 115.836 94.0425 115.719 93.7138 115.594C93.5287 115.524 93.3459 115.449 93.1619 115.376C92.9178 115.279 93.5033 115.531 93.1157 115.355C93.0155 115.309 92.9146 115.266 92.8147 115.22C92.1491 114.915 91.4993 114.576 90.8725 114.198C90.561 114.01 90.2555 113.813 89.9563 113.606C89.8231 113.515 89.6914 113.421 89.561 113.325C89.4992 113.28 89.4243 113.232 89.3666 113.18C89.6464 113.434 89.3743 113.185 89.3055 113.13C88.7424 112.676 88.21 112.184 87.7205 111.651C87.6125 111.533 87.5067 111.414 87.4032 111.293C87.3516 111.232 87.3005 111.171 87.2499 111.109C87.2411 111.098 86.9985 110.79 87.1516 110.99C87.2826 111.16 87.1272 110.955 87.0963 110.912C87.0376 110.833 86.98 110.752 86.9235 110.671C86.8108 110.508 86.702 110.343 86.5981 110.175C86.4319 109.906 86.277 109.631 86.1358 109.348C86.1004 109.278 86.0657 109.207 86.0321 109.135C86.025 109.12 85.8562 108.768 85.9664 109C86.0606 109.198 85.953 108.966 85.9328 108.915C85.8891 108.804 85.8476 108.692 85.808 108.58C85.6837 108.226 85.5808 107.866 85.498 107.501C85.4549 107.311 85.4171 107.119 85.3837 106.927C85.3862 106.942 85.3099 106.469 85.3453 106.704C85.376 106.908 85.3234 106.518 85.3191 106.479C85.1236 104.678 85.181 102.846 85.1627 101.037C85.1438 99.1752 85.1247 97.3133 85.1059 95.4513C85.1013 95.0136 85.0954 94.576 85.0927 94.1383C85.0901 93.752 85.0522 93.3153 85.1381 92.9367C85.0614 93.2748 85.1245 93.0314 85.1419 92.9659C85.17 92.8606 85.1891 92.753 85.2198 92.648C85.2333 92.6014 85.3185 92.3366 85.2489 92.5299C85.169 92.7515 85.3345 92.3739 85.3398 92.3649C85.3719 92.3101 85.4088 92.2583 85.4417 92.2041C85.5444 92.033 85.5017 92.2597 85.3634 92.3014C85.449 92.2754 85.617 92.0419 85.6868 91.9729C85.8663 91.7957 85.6174 92.0346 85.5818 92.0464C85.6239 92.0326 85.6923 91.9666 85.7335 91.9387C85.8505 91.8594 85.9717 91.7865 86.0951 91.7177C86.2208 91.6475 86.3493 91.5824 86.4793 91.5205C86.5379 91.4926 86.5969 91.4654 86.656 91.4389C86.8289 91.361 86.9462 91.4037 86.6387 91.4436C86.8753 91.4129 87.1551 91.238 87.3788 91.1499C87.7681 90.9967 88.1561 90.8388 88.5378 90.668C89.9427 90.039 91.0908 88.9725 91.5369 87.4633C92.0236 85.8165 91.5849 84.0779 91.2656 82.4453C91.2335 82.2817 91.202 82.1179 91.1735 81.9537C91.1568 81.8574 91.0916 81.3508 91.1312 81.7052C91.0838 81.2796 91.0497 80.8539 91.0399 80.4255C91.031 80.0431 91.0383 79.6603 91.0613 79.2783C91.0722 79.0984 91.0865 78.9189 91.104 78.7396C91.1151 78.6275 91.1296 78.5157 91.1412 78.4036C91.1615 78.2072 91.0956 78.6647 91.1493 78.3556C91.2894 77.5513 91.4629 76.7606 91.7137 75.9826C91.832 75.6159 91.9632 75.2534 92.107 74.8959C92.1373 74.8206 92.262 74.5417 92.1312 74.8352C92.1682 74.7524 92.2044 74.6692 92.242 74.5867C92.336 74.3804 92.4344 74.1762 92.5367 73.974C92.8973 73.2611 93.3105 72.5752 93.7659 71.9191C93.8651 71.7764 93.9662 71.635 94.0691 71.495C94.1206 71.425 94.174 71.3564 94.2251 71.2862C94.0412 71.5389 94.1753 71.3493 94.2167 71.2978C94.4746 70.9754 94.739 70.6586 95.0148 70.3513C95.5236 69.7843 96.0638 69.246 96.6298 68.7362C96.9216 68.4735 97.2201 68.2185 97.5246 67.9708C97.6602 67.8607 97.7969 67.7522 97.9346 67.6448C97.6881 67.8367 97.8744 67.692 97.926 67.6539C98.0312 67.576 98.1359 67.4972 98.2419 67.4201C99.4489 66.5415 100.733 65.7668 102.071 65.1056C102.379 64.9537 102.69 64.8074 103.003 64.6674C103.077 64.6346 103.151 64.6019 103.225 64.5695C103.237 64.564 103.604 64.4095 103.369 64.5066C103.168 64.5898 103.41 64.4905 103.46 64.4704C103.572 64.4248 103.684 64.3798 103.797 64.3357C104.454 64.078 105.122 63.8456 105.797 63.6387C107.187 63.2131 108.61 62.895 110.049 62.6838C110.08 62.6793 110.288 62.6551 110.289 62.6496C110.288 62.6571 109.89 62.6996 110.228 62.6585C110.389 62.639 110.55 62.6194 110.71 62.6019C111.093 62.5602 111.475 62.5259 111.859 62.499C112.585 62.4481 113.314 62.4237 114.042 62.4259C114.75 62.4279 115.459 62.4548 116.165 62.5071C116.528 62.534 116.891 62.5672 117.253 62.6072C117.414 62.6249 117.574 62.6445 117.735 62.6644C118.076 62.7062 117.675 62.6598 117.675 62.6557C117.675 62.6587 118.019 62.7059 118.035 62.7082C119.454 62.9235 120.858 63.241 122.23 63.6608C122.905 63.8674 123.574 64.0988 124.232 64.355C124.401 64.4209 124.57 64.4883 124.738 64.5575C124.825 64.5931 125.092 64.6827 124.75 64.562C124.825 64.5884 124.9 64.6269 124.972 64.6586C125.305 64.8046 125.634 64.9572 125.961 65.1165C127.268 65.7539 128.525 66.4951 129.711 67.3366C129.966 67.5171 130.23 67.6942 130.469 67.8947C130.153 67.6299 130.575 67.9808 130.651 68.0418C130.802 68.1631 130.951 68.2862 131.099 68.4108C131.617 68.8467 132.118 69.3022 132.601 69.7759C133.098 70.2627 133.576 70.7687 134.035 71.2917C134.252 71.5387 134.464 71.7895 134.671 72.0439C134.781 72.1786 134.89 72.3149 134.998 72.4511C135.15 72.6428 134.986 72.4 134.963 72.4053C134.977 72.4022 135.162 72.667 135.174 72.6827C135.996 73.7827 136.739 74.9421 137.399 76.147C137.724 76.7415 138.03 77.3472 138.314 77.9626C138.387 78.1209 138.458 78.2799 138.529 78.4394C138.564 78.5186 138.818 79.0392 138.621 78.6486C138.776 78.9561 138.884 79.299 139.005 79.6214C139.488 80.909 139.883 82.2296 140.184 83.5714C140.333 84.2322 140.459 84.8981 140.561 85.5676C140.576 85.6631 140.59 85.7589 140.604 85.8547C140.612 85.9126 140.642 86.1661 140.615 85.9315C140.584 85.6602 140.628 86.0414 140.631 86.0662C140.64 86.1431 140.649 86.2197 140.658 86.2966C140.697 86.6424 140.729 86.9889 140.756 87.3359C140.861 88.7229 140.865 90.1177 140.762 91.505C140.739 91.8132 140.711 92.1211 140.678 92.4286C140.659 92.6016 140.637 92.7741 140.616 92.9469C140.587 93.1936 140.677 92.5462 140.618 92.9282C140.604 93.0238 140.59 93.1195 140.575 93.2151C140.472 93.8837 140.342 94.5483 140.187 95.2067C139.873 96.5389 139.453 97.8456 138.938 99.1137C138.911 99.1787 138.866 99.2584 138.851 99.3244C138.917 99.0266 138.923 99.1561 138.878 99.2607C138.809 99.4174 138.741 99.5739 138.671 99.7297C138.522 100.058 138.366 100.384 138.205 100.707C137.908 101.301 137.589 101.885 137.25 102.457C136.912 103.03 136.553 103.59 136.176 104.138C135.981 104.42 135.782 104.699 135.578 104.974C135.501 105.077 135.346 105.217 135.303 105.338C135.376 105.131 135.435 105.17 135.341 105.288C135.271 105.378 135.2 105.468 135.128 105.557C134.282 106.611 133.364 107.607 132.382 108.537C131.885 109.009 131.371 109.463 130.843 109.9C130.71 110.009 130.577 110.117 130.443 110.224C130.384 110.271 130.324 110.318 130.264 110.366C130.161 110.447 130.077 110.43 130.314 110.328C130.03 110.45 129.741 110.758 129.488 110.939C128.372 111.734 127.203 112.451 125.987 113.082C125.397 113.388 124.796 113.674 124.185 113.937C124.094 113.977 123.859 114.106 124.197 113.934C124.131 113.967 124.054 113.993 123.986 114.02C123.845 114.077 123.704 114.133 123.562 114.188C123.243 114.311 122.922 114.429 122.599 114.54C121.339 114.974 120.049 115.312 118.739 115.555C117.922 115.707 117.384 116.738 117.632 117.504C117.913 118.377 118.705 118.772 119.58 118.61Z" fill="#675143"/>
<path d="M76.6805 128.06C76.7694 127.922 76.8623 127.787 76.9565 127.653C76.975 127.626 77.1001 127.46 76.9801 127.617C76.852 127.785 77.0143 127.578 77.0472 127.538C77.2429 127.303 77.4515 127.079 77.6705 126.865C77.8904 126.651 78.121 126.447 78.3598 126.254C78.3994 126.222 78.6113 126.064 78.4423 126.187C78.2837 126.303 78.4542 126.18 78.4796 126.162C78.6317 126.054 78.783 125.946 78.9384 125.844C79.4602 125.498 80.0067 125.191 80.568 124.915C80.8456 124.778 81.1307 124.624 81.4226 124.521C81.1216 124.627 81.4478 124.512 81.5639 124.465C81.7372 124.396 81.9114 124.329 82.0863 124.264C84.8721 123.226 87.809 122.591 90.4522 121.189C91.8734 120.436 93.2101 119.418 94.2337 118.172C94.759 117.533 94.9067 116.55 94.2337 115.932C93.6519 115.399 92.5537 115.248 91.992 115.932C91.5559 116.463 91.0686 116.946 90.5356 117.38C90.5 117.409 90.2757 117.581 90.4329 117.463C90.5785 117.354 90.3983 117.487 90.3792 117.501C90.2336 117.604 90.0884 117.708 89.9397 117.807C89.6436 118.004 89.3386 118.188 89.027 118.359C88.7439 118.515 88.4547 118.66 88.1623 118.798C87.9898 118.879 87.8155 118.956 87.641 119.033C87.6994 119.007 87.9107 118.923 87.6245 119.04C87.5361 119.075 87.4478 119.111 87.3592 119.146C86.6713 119.418 85.9709 119.658 85.2673 119.887C82.5777 120.76 79.7809 121.506 77.3901 123.073C76.0202 123.971 74.8325 125.08 73.9428 126.46C73.4931 127.159 73.7768 128.24 74.5116 128.628C75.2988 129.044 76.2006 128.805 76.6805 128.06Z" fill="#675143"/>
<path d="M114.493 127.47C113.986 124.977 112.186 122.833 109.984 121.621C107.402 120.199 104.332 120.052 101.509 120.751C98.6843 121.451 96.1985 123.012 93.9564 124.819C91.8139 126.545 89.8483 128.512 88.0238 130.567C85.8892 132.972 83.9452 135.554 82.2253 138.27C83.0551 138.163 83.885 138.056 84.7148 137.949C82.9267 136.41 81.1385 134.87 79.3504 133.331C77.6432 131.861 75.8523 130.449 74.2412 128.874C73.8828 128.523 73.5397 128.157 73.2276 127.764C73.4488 128.042 73.1745 127.684 73.1493 127.648C73.0972 127.573 73.0464 127.497 72.9969 127.421C72.8245 127.155 72.6699 126.878 72.5292 126.594C72.4893 126.513 72.4505 126.432 72.4125 126.35C72.3919 126.305 72.2201 125.89 72.3571 126.231C72.2729 126.021 72.1918 125.81 72.1151 125.597C71.93 125.083 71.7659 124.563 71.5959 124.044C70.9411 122.046 70.0847 120.231 68.7255 118.614C66.111 115.503 61.9403 113.917 57.9432 114.884C55.9262 115.372 54.1818 116.529 52.936 118.177C51.8177 119.657 51.1921 121.599 51.2622 123.456C51.3391 125.499 52.2311 127.281 53.5902 128.777C54.7491 130.052 56.1792 131.039 57.4417 132.204C57.7502 132.488 58.0496 132.783 58.3314 133.095C58.4588 133.235 58.5808 133.38 58.7018 133.527C58.9503 133.827 58.509 133.234 58.7587 133.605C58.8606 133.757 58.9678 133.905 59.0664 134.059C59.6104 134.908 60.0286 135.829 60.4219 136.755C60.2807 136.423 60.4593 136.846 60.476 136.887C60.5114 136.972 60.5468 137.057 60.5823 137.142C60.7235 137.481 60.8654 137.819 61.0094 138.157C61.2065 138.619 61.4111 139.078 61.6309 139.529C62.044 140.378 62.503 141.205 63.0055 142.004C65.1122 145.355 67.934 148.263 71.2921 150.371C74.8464 152.603 79.0189 153.874 83.2153 153.992C87.4015 154.11 91.4638 152.931 95.1394 150.98C98.7209 149.079 101.911 146.5 104.962 143.853C105.694 143.218 106.419 142.576 107.143 141.932C107.765 141.38 107.749 140.248 107.143 139.692C106.48 139.083 105.565 139.103 104.902 139.692C103.465 140.969 102.024 142.24 100.537 143.459C100.177 143.754 99.8145 144.046 99.4488 144.334C99.3791 144.389 99.3091 144.443 99.2397 144.498C98.8914 144.773 99.4931 144.306 99.1405 144.575C98.9296 144.736 98.7185 144.896 98.5058 145.054C97.7297 145.632 96.9376 146.189 96.1261 146.716C95.3586 147.214 94.5734 147.685 93.7687 148.121C93.3692 148.338 92.9645 148.546 92.5551 148.744C92.3412 148.847 92.126 148.948 91.9096 149.045C91.8309 149.081 91.752 149.116 91.6731 149.151C91.5942 149.186 91.5149 149.22 91.4356 149.254C91.6156 149.178 91.6225 149.175 91.4563 149.244C90.6148 149.583 89.761 149.885 88.8869 150.129C88.4267 150.258 87.9622 150.371 87.4944 150.468C87.2789 150.513 87.0627 150.555 86.8459 150.592C86.7568 150.608 86.6674 150.623 86.5779 150.637C86.5077 150.648 85.9277 150.723 86.3275 150.676C85.3839 150.788 84.437 150.844 83.4866 150.83C82.9894 150.822 82.4925 150.797 81.9969 150.754C81.7716 150.735 81.5465 150.712 81.3219 150.686C81.3211 150.686 80.8804 150.626 81.1287 150.662C81.339 150.693 80.8475 150.618 80.8023 150.61C79.841 150.454 78.8902 150.234 77.9578 149.952C77.5022 149.815 77.0509 149.663 76.6049 149.497C76.3924 149.418 76.1823 149.333 75.9714 149.25C75.5507 149.084 76.2613 149.383 75.8488 149.198C75.7246 149.143 75.6001 149.088 75.4764 149.032C74.5853 148.624 73.7219 148.157 72.8922 147.636C72.5375 147.413 72.1891 147.18 71.8471 146.938C71.6762 146.817 71.507 146.694 71.3393 146.569C71.2909 146.532 70.9586 146.271 71.2612 146.511C71.1629 146.433 71.0641 146.355 70.9663 146.276C69.5646 145.144 68.2925 143.853 67.1695 142.445C67.1323 142.398 66.8738 142.062 67.1075 142.369C67.0439 142.285 66.9806 142.202 66.9178 142.118C66.7797 141.933 66.6442 141.746 66.5112 141.557C66.245 141.18 65.989 140.796 65.7433 140.405C65.2631 139.641 64.8228 138.852 64.424 138.043C64.2241 137.637 64.0356 137.226 63.856 136.811C63.8194 136.727 63.7834 136.642 63.7472 136.558C63.8896 136.891 63.7096 136.467 63.6927 136.427C63.5861 136.172 63.4802 135.917 63.373 135.662C62.9473 134.65 62.5189 133.633 61.9484 132.692C60.9982 131.124 59.6798 129.917 58.2832 128.757C57.6652 128.244 57.0435 127.734 56.4621 127.179C56.1643 126.895 55.8772 126.599 55.6103 126.285C55.5621 126.228 55.5154 126.171 55.4678 126.114C55.2225 125.819 55.6646 126.396 55.4446 126.082C55.3169 125.9 55.1906 125.718 55.0765 125.527C54.9809 125.367 54.8916 125.203 54.8095 125.035C54.7529 124.919 54.5634 124.711 54.7853 125C54.7511 124.956 54.7218 124.834 54.7057 124.789C54.6429 124.613 54.5896 124.433 54.5447 124.251C54.518 124.143 54.4944 124.033 54.4737 123.923C54.4599 123.85 54.4477 123.776 54.4369 123.703C54.4462 123.769 54.4556 123.836 54.4649 123.902C54.3858 123.814 54.4294 123.407 54.4283 123.288C54.4259 123.082 54.4332 122.877 54.4507 122.672C54.4534 122.638 54.4513 122.488 54.4733 122.448C54.4645 122.514 54.4556 122.58 54.4468 122.646C54.458 122.572 54.4706 122.498 54.4843 122.424C54.5257 122.202 54.5778 121.982 54.6403 121.765C54.6927 121.584 54.7521 121.404 54.8186 121.228C54.8322 121.192 54.8457 121.157 54.8593 121.122C54.9248 120.96 54.9158 120.981 54.8318 121.187C54.8554 121.173 54.9095 121.019 54.9282 120.981C55.1208 120.587 55.3543 120.226 55.605 119.867C55.7399 119.674 55.3535 120.152 55.6022 119.875C55.678 119.791 55.7496 119.703 55.8265 119.62C55.9546 119.481 56.0883 119.348 56.2278 119.22C56.2975 119.157 56.3687 119.095 56.4413 119.034C56.5198 118.969 56.6689 118.785 56.4446 119.028C56.5924 118.867 56.8609 118.74 57.0486 118.629C57.2214 118.527 57.3984 118.432 57.5788 118.345C57.615 118.327 57.6512 118.31 57.6874 118.293C57.8492 118.221 57.8332 118.226 57.6394 118.309C57.6778 118.273 57.8073 118.242 57.8637 118.221C58.316 118.052 58.7839 117.926 59.2588 117.84C59.2885 117.835 59.4976 117.802 59.4976 117.8C59.4372 117.808 59.3768 117.816 59.3164 117.824C59.3967 117.814 59.4772 117.806 59.5576 117.798C59.7591 117.779 59.9613 117.767 60.1638 117.763C60.3664 117.758 60.5693 117.76 60.7719 117.769C60.8935 117.775 61.0151 117.782 61.1363 117.793C61.2041 117.799 61.6277 117.83 61.1986 117.792C61.6163 117.829 62.0456 117.944 62.4462 118.062C62.6598 118.125 62.8711 118.196 63.0791 118.275C63.1524 118.303 63.2311 118.331 63.303 118.364C62.9128 118.182 63.3964 118.415 63.4678 118.451C63.8237 118.626 64.1686 118.823 64.5003 119.041C64.5877 119.098 64.95 119.273 64.9876 119.382C64.9438 119.348 64.8999 119.313 64.8562 119.279C64.9188 119.328 64.9807 119.377 65.0423 119.428C65.1346 119.503 65.2255 119.58 65.315 119.659C65.6443 119.948 65.9558 120.257 66.2481 120.583C66.3815 120.732 66.5084 120.886 66.6359 121.04C66.8204 121.263 66.642 121.038 66.6094 121.003C66.7152 121.118 66.8018 121.263 66.8907 121.392C67.1187 121.721 67.3296 122.061 67.5234 122.411C67.6202 122.586 67.7125 122.763 67.8004 122.943C67.8531 123.05 67.9041 123.159 67.9537 123.268C67.9865 123.341 68.0188 123.414 68.0503 123.487C67.9812 123.323 67.9692 123.297 68.0143 123.408C68.6954 125.302 69.1772 127.381 70.297 129.078C71.4896 130.885 73.221 132.224 74.8437 133.622C76.5523 135.093 78.261 136.564 79.9697 138.035C80.8042 138.753 81.6386 139.472 82.473 140.19C83.2603 140.868 84.3869 140.779 84.9625 139.87C85.6674 138.756 86.4084 137.666 87.1878 136.604C87.3688 136.358 87.5518 136.112 87.7365 135.869C87.7757 135.817 87.9966 135.528 87.913 135.637C87.7987 135.785 87.9797 135.551 88.0057 135.518C88.0637 135.444 88.1219 135.37 88.1802 135.296C88.5888 134.78 89.0063 134.27 89.4324 133.768C91.1163 131.783 92.9348 129.906 94.8809 128.177C95.3458 127.764 95.8196 127.361 96.3057 126.973C96.3777 126.916 96.713 126.658 96.4745 126.838C96.5845 126.755 96.6945 126.672 96.8054 126.59C97.0824 126.385 97.3637 126.186 97.6496 125.994C98.182 125.636 98.7299 125.301 99.2949 124.997C99.5572 124.856 99.8232 124.721 100.093 124.594C100.217 124.535 100.343 124.478 100.468 124.422C100.749 124.297 100.536 124.395 100.478 124.418C100.565 124.384 100.652 124.348 100.739 124.315C101.353 124.079 101.984 123.886 102.626 123.742C102.924 123.675 103.224 123.625 103.524 123.574C103.77 123.532 103.272 123.594 103.521 123.575C103.59 123.57 103.66 123.56 103.73 123.553C103.915 123.536 104.102 123.522 104.288 123.514C104.59 123.5 104.893 123.498 105.195 123.51C105.358 123.516 105.52 123.526 105.682 123.54C105.751 123.546 105.821 123.556 105.89 123.56C106.135 123.574 105.642 123.516 105.883 123.557C106.49 123.662 107.086 123.796 107.665 124.013C107.683 124.019 107.812 124.083 107.826 124.074C107.772 124.107 107.523 123.938 107.817 124.073C107.94 124.128 108.061 124.187 108.18 124.248C108.453 124.389 108.719 124.545 108.975 124.715C109.095 124.794 109.256 124.874 109.351 124.98C109.348 124.976 109.122 124.793 109.258 124.909C109.331 124.971 109.406 125.03 109.479 125.092C109.696 125.279 109.903 125.478 110.098 125.687C110.202 125.799 110.303 125.913 110.4 126.03C110.419 126.054 110.479 126.155 110.507 126.163C110.444 126.144 110.335 125.926 110.465 126.115C110.636 126.364 110.801 126.616 110.945 126.883C111.016 127.016 111.081 127.152 111.146 127.289C111.166 127.331 111.217 127.504 111.155 127.307C111.079 127.07 111.19 127.417 111.197 127.435C111.298 127.722 111.375 128.015 111.435 128.313C111.601 129.126 112.609 129.67 113.385 129.419C114.249 129.14 114.67 128.342 114.493 127.47Z" fill="#675143"/>
<path d="M116.094 122.314C116.523 123.344 116.883 124.401 117.162 125.482C117.301 126.022 117.421 126.566 117.522 127.115C117.573 127.389 117.615 127.664 117.659 127.94C117.73 128.383 117.637 127.729 117.669 128.002C117.688 128.164 117.708 128.325 117.726 128.487C117.843 129.596 117.884 130.713 117.846 131.828C117.827 132.386 117.788 132.942 117.73 133.497C117.716 133.635 117.699 133.774 117.683 133.912C117.647 134.223 117.676 133.967 117.685 133.906C117.639 134.228 117.588 134.549 117.529 134.869C117.331 135.945 117.058 137.007 116.709 138.045C116.551 138.514 116.375 138.976 116.19 139.435C116.08 139.707 116.188 139.447 116.206 139.399C116.163 139.514 116.107 139.626 116.057 139.738C115.939 140.002 115.816 140.263 115.688 140.522C115.25 141.409 114.756 142.269 114.211 143.095C113.961 143.473 113.7 143.845 113.429 144.208C113.392 144.259 113.137 144.591 113.377 144.282C113.301 144.379 113.225 144.476 113.147 144.573C112.966 144.798 112.781 145.02 112.593 145.238C111.865 146.08 111.078 146.872 110.238 147.604C110.052 147.767 109.863 147.926 109.671 148.083C109.575 148.161 109.478 148.238 109.382 148.316C109.243 148.424 109.253 148.418 109.41 148.296C109.344 148.346 109.279 148.396 109.213 148.445C108.75 148.791 108.275 149.119 107.788 149.43C107.091 149.877 106.742 150.858 107.22 151.598C107.669 152.295 108.642 152.645 109.388 152.166C113.02 149.839 116.056 146.588 118.087 142.781C120.278 138.672 121.3 133.967 120.97 129.32C120.778 126.625 120.192 123.967 119.151 121.471C118.985 121.073 118.811 120.752 118.423 120.525C118.083 120.326 117.582 120.242 117.201 120.365C116.468 120.602 115.752 121.495 116.094 122.314Z" fill="#675143"/>
<path d="M118.935 38.9109C119.842 36.8143 119.05 34.1485 116.458 32.9906C114.389 32.066 112.072 33.3359 112.072 33.3359C112.072 33.3359 111.725 30.7188 109.753 29.5992C107.285 28.1984 104.666 29.139 103.513 31.111C102.373 33.0597 102.871 35.5897 103.39 37.4004C104.096 39.8621 105.58 42.7542 106.55 44.2399C108.323 44.1413 111.533 43.6231 113.936 42.734C115.704 42.0798 118.038 40.9829 118.935 38.9109Z" fill="#EF8491"/>
</svg>
