<svg width="18" height="19" viewBox="0 0 18 19" fill="none" xmlns="http://www.w3.org/2000/svg">
<g clip-path="url(#clip0_186_1240)">
<mask id="mask0_186_1240" style="mask-type:luminance" maskUnits="userSpaceOnUse" x="0" y="0" width="18" height="19">
<path d="M17.6676 7.87635H9.28125V11.4735H14.1085C13.6585 13.7588 11.7767 15.0707 9.28125 15.0707C6.3358 15.0707 3.96307 12.6162 3.96307 9.56914C3.96307 6.52211 6.3358 4.06757 9.28125 4.06757C10.5494 4.06757 11.6949 4.53309 12.5949 5.29484L15.2131 2.58638C13.6176 1.1475 11.5722 0.258789 9.28125 0.258789C4.29034 0.258789 0.28125 4.40613 0.28125 9.56914C0.28125 14.7321 4.29034 18.8795 9.28125 18.8795C13.7813 18.8795 17.8722 15.4939 17.8722 9.56914C17.8722 9.01898 17.7903 8.4265 17.6676 7.87635Z" fill="white"/>
</mask>
<g mask="url(#mask0_186_1240)">
<path d="M-0.537109 15.0708V4.06763L6.41744 9.5692L-0.537109 15.0708Z" fill="#FBBC05"/>
</g>
<mask id="mask1_186_1240" style="mask-type:luminance" maskUnits="userSpaceOnUse" x="0" y="0" width="18" height="19">
<path d="M17.6676 7.87635H9.28125V11.4735H14.1085C13.6585 13.7588 11.7767 15.0707 9.28125 15.0707C6.3358 15.0707 3.96307 12.6162 3.96307 9.56914C3.96307 6.52211 6.3358 4.06757 9.28125 4.06757C10.5494 4.06757 11.6949 4.53309 12.5949 5.29484L15.2131 2.58638C13.6176 1.1475 11.5722 0.258789 9.28125 0.258789C4.29034 0.258789 0.28125 4.40613 0.28125 9.56914C0.28125 14.7321 4.29034 18.8795 9.28125 18.8795C13.7813 18.8795 17.8722 15.4939 17.8722 9.56914C17.8722 9.01898 17.7903 8.4265 17.6676 7.87635Z" fill="white"/>
</mask>
<g mask="url(#mask1_186_1240)">
<path d="M-0.537109 4.06753L6.41744 9.5691L9.28108 6.98759L19.0993 5.33712V-0.587646H-0.537109V4.06753Z" fill="#EA4335"/>
</g>
<mask id="mask2_186_1240" style="mask-type:luminance" maskUnits="userSpaceOnUse" x="0" y="0" width="18" height="19">
<path d="M17.6676 7.87635H9.28125V11.4735H14.1085C13.6585 13.7588 11.7767 15.0707 9.28125 15.0707C6.3358 15.0707 3.96307 12.6162 3.96307 9.56914C3.96307 6.52211 6.3358 4.06757 9.28125 4.06757C10.5494 4.06757 11.6949 4.53309 12.5949 5.29484L15.2131 2.58638C13.6176 1.1475 11.5722 0.258789 9.28125 0.258789C4.29034 0.258789 0.28125 4.40613 0.28125 9.56914C0.28125 14.7321 4.29034 18.8795 9.28125 18.8795C13.7813 18.8795 17.8722 15.4939 17.8722 9.56914C17.8722 9.01898 17.7903 8.4265 17.6676 7.87635Z" fill="white"/>
</mask>
<g mask="url(#mask2_186_1240)">
<path d="M-0.537109 15.0707L11.7356 5.33712L14.9674 5.76032L19.0993 -0.587646V19.7258H-0.537109V15.0707Z" fill="#34A853"/>
</g>
<mask id="mask3_186_1240" style="mask-type:luminance" maskUnits="userSpaceOnUse" x="0" y="0" width="18" height="19">
<path d="M17.6676 7.87635H9.28125V11.4735H14.1085C13.6585 13.7588 11.7767 15.0707 9.28125 15.0707C6.3358 15.0707 3.96307 12.6162 3.96307 9.56914C3.96307 6.52211 6.3358 4.06757 9.28125 4.06757C10.5494 4.06757 11.6949 4.53309 12.5949 5.29484L15.2131 2.58638C13.6176 1.1475 11.5722 0.258789 9.28125 0.258789C4.29034 0.258789 0.28125 4.40613 0.28125 9.56914C0.28125 14.7321 4.29034 18.8795 9.28125 18.8795C13.7813 18.8795 17.8722 15.4939 17.8722 9.56914C17.8722 9.01898 17.7903 8.4265 17.6676 7.87635Z" fill="white"/>
</mask>
<g mask="url(#mask3_186_1240)">
<path d="M19.0994 19.7259L6.41761 9.5692L4.78125 8.2996L19.0994 4.06763V19.7259Z" fill="#4285F4"/>
</g>
</g>
<defs>
<clipPath id="clip0_186_1240">
<rect width="18" height="18.6207" fill="white" transform="translate(0 0.258789)"/>
</clipPath>
</defs>
</svg>
