<svg width="56" height="56" viewBox="0 0 56 56" fill="none" xmlns="http://www.w3.org/2000/svg">
<path d="M28 21C24.206 21 21 24.206 21 28C21 31.794 24.206 35 28 35C31.794 35 35 31.794 35 28C35 24.206 31.794 21 28 21Z" fill="#F7F7F7"/>
<path d="M46.6667 11.6668H40.6327L34.3164 5.35042C34.1001 5.13332 33.843 4.96115 33.5599 4.84381C33.2767 4.72648 32.9732 4.66631 32.6667 4.66675H23.3334C23.0269 4.66631 22.7234 4.72648 22.4403 4.84381C22.1572 4.96115 21.9001 5.13332 21.6837 5.35042L15.3674 11.6668H9.33341C6.75975 11.6668 4.66675 13.7597 4.66675 16.3334V42.0001C4.66675 44.5738 6.75975 46.6668 9.33341 46.6668H46.6667C49.2404 46.6668 51.3334 44.5738 51.3334 42.0001V16.3334C51.3334 13.7597 49.2404 11.6668 46.6667 11.6668ZM28.0001 39.6667C21.6767 39.6667 16.3334 34.3234 16.3334 28.0001C16.3334 21.6767 21.6767 16.3334 28.0001 16.3334C34.3234 16.3334 39.6667 21.6767 39.6667 28.0001C39.6667 34.3234 34.3234 39.6667 28.0001 39.6667Z" fill="#F7F7F7"/>
</svg>
