<svg width="24" height="24" viewBox="0 0 24 24" fill="none" xmlns="http://www.w3.org/2000/svg">
<g clip-path="url(#clip0_154_856)">
<path fill-rule="evenodd" clip-rule="evenodd" d="M23.9464 1.02895C24.0009 0.892657 24.0143 0.743347 23.9848 0.599533C23.9553 0.455718 23.8842 0.323724 23.7804 0.219914C23.6766 0.116105 23.5446 0.0450444 23.4008 0.0155432C23.257 -0.013958 23.1077 -0.00060275 22.9714 0.0539533L22.8289 0.110953L1.15089 8.78095L1.14939 8.78245L0.471392 9.05245C0.342978 9.10368 0.23122 9.1894 0.148466 9.30015C0.0657109 9.4109 0.0151792 9.54237 0.00245241 9.68004C-0.0102744 9.8177 0.015299 9.95621 0.0763477 10.0803C0.137396 10.2043 0.231545 10.3091 0.348392 10.383L0.963392 10.773L0.964892 10.776L7.80939 15.1305L8.45739 15.543L8.86989 16.191L13.2244 23.0355L13.2274 23.0385L13.6174 23.6535C13.6915 23.7699 13.7963 23.8635 13.9203 23.9242C14.0442 23.9849 14.1825 24.0102 14.3199 23.9973C14.4573 23.9844 14.5885 23.9339 14.699 23.8512C14.8096 23.7686 14.8952 23.6571 14.9464 23.529L15.2179 22.8495L23.8894 1.16995L23.9464 1.02745V1.02895ZM21.1969 3.86395L21.9034 2.09695L20.1364 2.80345L8.89539 14.0445L9.40239 14.367C9.49543 14.426 9.5743 14.5049 9.63339 14.598L9.95589 15.105L21.1969 3.86395V3.86395Z" fill="#49C09C"/>
</g>
<defs>
<clipPath id="clip0_154_856">
<rect width="24" height="24" fill="white"/>
</clipPath>
</defs>
</svg>
