<svg width="56" height="56" viewBox="0 0 56 56" fill="none" xmlns="http://www.w3.org/2000/svg">
<g filter="url(#filter0_d_80_270)">
<path d="M46.6643 9.33325H9.33097C6.75731 9.33325 4.66431 11.4263 4.66431 13.9999V41.9999C4.66431 44.5736 6.75731 46.6666 9.33097 46.6666H46.6643C49.238 46.6666 51.331 44.5736 51.331 41.9999V13.9999C51.331 11.4263 49.238 9.33325 46.6643 9.33325ZM15.1643 16.3333C16.0926 16.3333 16.9828 16.702 17.6392 17.3584C18.2956 18.0148 18.6643 18.905 18.6643 19.8333C18.6643 20.7615 18.2956 21.6517 17.6392 22.3081C16.9828 22.9645 16.0926 23.3333 15.1643 23.3333C14.236 23.3333 13.3458 22.9645 12.6894 22.3081C12.0331 21.6517 11.6643 20.7615 11.6643 19.8333C11.6643 18.905 12.0331 18.0148 12.6894 17.3584C13.3458 16.702 14.236 16.3333 15.1643 16.3333V16.3333ZM27.9976 39.6666H11.6643L20.9976 27.9999L24.4976 32.6666L31.4976 23.3333L44.331 39.6666H27.9976Z" fill="#F7F7F7"/>
</g>
<defs>
<filter id="filter0_d_80_270" x="-4" y="0" width="64" height="64" filterUnits="userSpaceOnUse" color-interpolation-filters="sRGB">
<feFlood flood-opacity="0" result="BackgroundImageFix"/>
<feColorMatrix in="SourceAlpha" type="matrix" values="0 0 0 0 0 0 0 0 0 0 0 0 0 0 0 0 0 0 127 0" result="hardAlpha"/>
<feOffset dy="4"/>
<feGaussianBlur stdDeviation="2"/>
<feComposite in2="hardAlpha" operator="out"/>
<feColorMatrix type="matrix" values="0 0 0 0 0 0 0 0 0 0 0 0 0 0 0 0 0 0 0.25 0"/>
<feBlend mode="normal" in2="BackgroundImageFix" result="effect1_dropShadow_80_270"/>
<feBlend mode="normal" in="SourceGraphic" in2="effect1_dropShadow_80_270" result="shape"/>
</filter>
</defs>
</svg>
